<svg version="1.1" id="Layer_1" xmlns="http://www.w3.org/2000/svg" xmlns:xlink="http://www.w3.org/1999/xlink" x="0px" y="0px"
	 width="100%" viewBox="0 0 720 720" enable-background="new 0 0 720 720" xml:space="preserve">
<path fill="#FFFFFF" opacity="1.000000" stroke="none" 
	d="
M652.000000,721.000000 
	C434.666656,721.000000 217.833328,721.000000 1.000000,721.000000 
	C1.000000,481.000000 1.000000,241.000000 1.000000,1.000000 
	C241.000000,1.000000 481.000000,1.000000 721.000000,1.000000 
	C721.000000,241.000000 721.000000,481.000000 721.000000,721.000000 
	C698.166687,721.000000 675.333313,721.000000 652.000000,721.000000 
M24.070896,460.653839 
	C25.236116,465.390930 27.950111,468.429749 33.978012,468.971985 
	C42.975925,468.981262 51.973862,469.007599 60.971752,468.996796 
	C97.294144,468.953247 133.616516,468.898254 170.666885,468.941254 
	C175.360748,467.731415 178.463699,465.074829 178.971680,459.022156 
	C178.930420,416.701691 178.889160,374.381256 178.942398,331.331482 
	C177.779099,326.580688 174.986176,323.630493 169.013519,323.038208 
	C159.683029,323.025543 150.352509,322.992828 141.022049,323.003754 
	C105.035179,323.045929 69.048325,323.102112 32.337894,323.070862 
	C27.716240,324.340759 24.501171,326.891754 24.029594,332.978516 
	C24.019855,347.973511 23.984453,362.968536 24.005966,377.963501 
	C24.045160,405.284302 24.118111,432.605072 24.070896,460.653839 
M318.976410,397.327972 
	C318.222015,395.540649 317.467590,393.753296 316.795013,392.159882 
	C313.628021,392.159882 310.831024,392.159882 307.878418,392.159882 
	C307.878418,404.452362 307.878418,416.566376 307.878418,428.776733 
	C310.107025,428.776733 312.198181,428.776733 314.843201,428.776733 
	C314.843201,421.099213 314.843201,413.646179 314.843201,406.193146 
	C318.212769,412.519379 320.441803,419.038788 323.016449,425.418762 
	C323.600769,426.866791 325.422485,428.803253 326.603790,428.755615 
	C327.885651,428.703979 329.624115,426.819122 330.225952,425.349670 
	C332.752655,419.180511 334.928467,412.867676 337.232758,406.607422 
	C337.646759,406.675812 338.060791,406.744232 338.474823,406.812622 
	C338.474823,414.118744 338.474823,421.424866 338.474823,428.734009 
	C341.185852,428.734009 343.264130,428.734009 345.395294,428.734009 
	C345.395294,416.377228 345.395294,404.307129 345.395294,392.178955 
	C342.169586,392.178955 339.221832,392.178955 336.266968,392.178955 
	C333.145844,401.007690 330.085663,409.664124 326.576202,419.591461 
	C323.785980,411.529358 321.463837,404.819672 318.976410,397.327972 
M603.512695,391.987396 
	C602.585083,392.898346 600.865601,393.796326 600.850403,394.722260 
	C600.665100,406.032745 600.729858,417.347351 600.729858,428.770996 
	C603.103699,428.770996 605.193115,428.770996 607.957520,428.770996 
	C607.957520,420.783600 607.957520,413.018707 607.957520,403.857635 
	C612.508850,411.480255 616.548767,417.582062 619.877075,424.050049 
	C622.162415,428.491333 625.065552,430.113098 629.942627,428.593201 
	C629.942627,416.607880 629.942627,404.499390 629.942627,392.188599 
	C627.648254,392.188599 625.371887,392.188599 622.169495,392.188599 
	C622.169495,399.534271 622.169495,406.729492 622.169495,413.924683 
	C617.079407,407.649323 613.367065,401.174286 609.263611,394.957489 
	C608.311646,393.515289 606.025269,392.953949 603.512695,391.987396 
M445.126617,402.548035 
	C445.126617,399.109192 445.126617,395.670349 445.126617,392.308228 
	C442.443604,392.308228 440.225159,392.308228 437.232300,392.308228 
	C437.232300,399.716522 437.232300,406.809387 437.232300,413.902252 
	C432.415619,408.188110 428.506683,402.444122 425.358673,396.309662 
	C423.072906,391.855530 420.115540,391.123322 416.049042,392.386078 
	C416.049042,404.715576 416.049042,416.765472 416.049042,428.818359 
	C418.323273,428.818359 420.275360,428.818359 422.866882,428.818359 
	C422.866882,420.857178 422.866882,413.067383 422.866882,405.277588 
	C427.460022,411.413391 431.446198,417.504730 434.824249,423.916473 
	C437.177979,428.384125 440.016693,430.419098 445.126587,428.416504 
	C445.126587,420.168396 445.126587,411.851776 445.126617,402.548035 
M378.061829,412.491119 
	C380.374817,416.337738 383.042297,420.021271 384.907166,424.074066 
	C387.031860,428.691650 390.164856,430.017181 394.963684,428.617828 
	C394.963684,416.577606 394.963684,404.457703 394.963684,392.193634 
	C392.622986,392.193634 390.347992,392.193634 387.356049,392.193634 
	C387.356049,399.533966 387.356049,406.667999 387.356049,413.802032 
	C386.909485,413.920563 386.462952,414.039124 386.016388,414.157684 
	C382.547516,408.419586 378.757660,402.845490 375.715454,396.889465 
	C373.445435,392.445251 370.596344,390.870972 365.992279,392.464142 
	C365.992279,404.593506 365.992279,416.682037 365.992279,428.867401 
	C368.226898,428.867401 370.197906,428.867401 372.797058,428.867401 
	C372.797058,420.927094 372.797058,413.115601 372.797058,403.812775 
	C375.028229,407.390442 376.405273,409.598480 378.061829,412.491119 
M250.009781,420.131042 
	C250.571854,415.203949 248.561020,411.639008 243.775711,409.465302 
	C248.112625,406.892639 248.893539,403.214691 247.872101,399.253143 
	C246.857040,395.316315 243.737900,393.203766 239.828293,392.800751 
	C234.265656,392.227356 228.663254,392.039612 222.902039,391.675995 
	C222.902039,404.483154 222.902039,416.595520 222.902039,428.967651 
	C228.220444,428.967651 233.379913,429.251221 238.493546,428.888550 
	C243.692551,428.519775 248.281525,426.713287 250.009781,420.131042 
M558.756714,412.012939 
	C558.859741,411.259094 558.686646,410.257263 559.107361,409.788666 
	C565.327454,402.860535 562.830139,394.445221 553.610168,392.778076 
	C548.184631,391.796997 542.535095,392.054688 537.016357,391.756836 
	C537.016357,404.657593 537.016357,416.728455 537.016357,428.848572 
	C539.277222,428.848572 541.240356,428.848572 543.701050,428.848572 
	C543.701050,423.919769 543.701050,419.150970 543.701050,414.432739 
	C553.688721,413.605865 555.574829,414.863037 555.719971,422.070374 
	C555.869385,429.494263 555.884949,429.506775 563.723022,428.712799 
	C563.487244,426.292023 563.587219,423.787811 562.935913,421.497253 
	C562.064392,418.432861 560.610535,415.534119 558.756714,412.012939 
M472.277039,421.303131 
	C470.023987,424.935211 466.160706,424.652435 463.476105,423.288940 
	C461.101959,422.083099 458.985931,418.974701 458.249664,416.295807 
	C457.354919,413.040283 458.043945,409.354340 458.014709,405.854858 
	C457.978455,401.514526 459.811188,398.229095 464.109924,397.311066 
	C468.668732,396.337402 471.719269,398.505829 472.488495,403.361786 
	C474.849854,403.251617 476.915161,403.155243 479.067841,403.054810 
	C478.836975,396.945526 475.700134,393.624603 470.597015,392.180969 
	C459.545319,389.054474 450.845001,395.673767 450.723358,407.133240 
	C450.700378,409.299530 450.806305,411.470337 450.703827,413.632019 
	C450.397736,420.090668 452.786102,425.347076 458.741089,427.874817 
	C465.182037,430.608917 471.820007,430.198090 477.653442,425.795288 
	C478.674774,425.024414 479.497314,423.380981 479.578918,422.087952 
	C479.827606,418.149750 479.669067,414.185852 479.669067,410.056213 
	C474.765228,410.056213 470.309204,410.056213 465.646729,410.056213 
	C465.646729,411.541992 465.646729,412.919067 465.646729,414.422852 
	C468.011536,414.634003 470.079041,414.818573 472.322205,415.018860 
	C472.322205,417.043335 472.322205,418.692017 472.277039,421.303131 
M266.741730,429.279510 
	C267.407715,429.278717 268.074646,429.301208 268.739502,429.273560 
	C275.521454,428.991425 279.953094,426.004578 280.920898,421.073608 
	C281.963226,415.762909 279.073944,411.644867 272.245087,408.838318 
	C269.638458,407.767029 266.718689,407.217407 264.432159,405.693817 
	C262.954468,404.709198 261.306549,402.110077 261.665741,400.741089 
	C262.060364,399.237335 264.527283,397.679810 266.345215,397.268616 
	C270.424377,396.346008 272.891235,398.758453 273.989502,402.277710 
	C276.321991,402.277710 278.370697,402.277710 280.460754,402.277710 
	C279.184784,394.186493 273.956757,390.856812 264.592041,391.816559 
	C259.190125,392.370178 254.894913,395.812805 254.063812,400.254944 
	C253.237289,404.672607 255.661758,408.621552 261.011871,411.080170 
	C264.319580,412.600220 267.953827,413.489227 271.078430,415.291107 
	C272.438995,416.075714 273.775787,418.608521 273.504517,420.040741 
	C273.227600,421.502899 271.130463,423.352692 269.541016,423.696808 
	C264.751556,424.733673 260.952240,423.229980 259.983215,418.113831 
	C257.581299,418.113831 255.529221,418.113831 253.459686,418.113831 
	C254.356659,425.504700 257.614105,428.329926 266.741730,429.279510 
M658.882385,394.553772 
	C654.767334,393.643005 650.665222,392.067596 646.533936,391.986694 
	C641.153137,391.881348 636.852112,395.869080 636.055054,400.316162 
	C635.260315,404.750153 637.680969,408.632690 643.075806,411.103851 
	C646.387207,412.620636 650.023010,413.513763 653.142883,415.324860 
	C654.490479,416.107147 655.788696,418.684662 655.492981,420.111755 
	C655.190491,421.571655 653.068176,423.369019 651.463806,423.710785 
	C646.644104,424.737457 642.910034,423.109985 641.890320,417.929260 
	C639.615906,417.929260 637.651306,417.929260 635.644287,417.929260 
	C635.534119,418.604431 635.322998,419.104706 635.397888,419.557648 
	C636.658020,427.173920 645.780823,431.539093 654.963013,428.806183 
	C659.201416,427.544678 662.465271,425.088715 662.982544,420.294647 
	C663.492493,415.568481 661.158875,412.238495 657.132385,410.213684 
	C654.181641,408.729767 650.779663,408.087952 647.952942,406.432068 
	C646.050476,405.317657 644.383728,403.274200 643.487610,401.257202 
	C643.178162,400.560608 645.485352,397.605042 646.644958,397.575836 
	C649.222717,397.510742 653.270081,397.851074 654.144348,399.441254 
	C656.366150,403.482788 659.090881,402.844666 663.354187,402.149292 
	C661.885254,399.434265 660.682190,397.210602 658.882385,394.553772 
M584.020813,391.996399 
	C582.061951,391.996399 580.103088,391.996399 578.062012,391.996399 
	C573.883789,404.359436 569.806702,416.423401 565.625610,428.794800 
	C568.268433,428.794800 570.543396,428.794800 572.993347,428.794800 
	C573.908630,426.239807 574.839294,423.642090 575.731689,421.151001 
	C579.885559,421.151001 583.690918,421.151001 587.705811,421.151001 
	C588.603333,423.794037 589.481750,426.380676 590.292847,428.769165 
	C592.982483,428.769165 595.240417,428.769165 597.766907,428.769165 
	C595.588562,422.356812 593.567322,416.225616 591.420349,410.138763 
	C589.293762,404.109558 587.040527,398.125031 584.020813,391.996399 
M206.826874,410.096649 
	C205.819321,413.308899 204.811752,416.521179 203.479446,420.768768 
	C200.386246,410.471497 197.630325,401.296997 194.902252,392.215210 
	C192.341141,392.215210 190.060425,392.215210 187.361908,392.215210 
	C190.936584,402.728729 194.417496,412.905487 197.854523,423.097015 
	C200.073624,429.677063 200.044830,429.686768 207.441406,428.432129 
	C211.473572,416.518860 215.540283,404.503540 219.717072,392.162994 
	C216.866501,392.162994 214.574493,392.162994 212.200516,392.162994 
	C210.454758,397.908569 208.723129,403.607635 206.826874,410.096649 
M703.073730,397.687561 
	C704.326294,397.687561 705.578857,397.687561 706.958679,397.687561 
	C706.958679,395.512970 706.958679,393.899658 706.958679,392.200256 
	C697.562195,392.200256 688.353638,392.200256 678.826477,392.200256 
	C678.919067,394.167572 679.000000,395.888306 679.094116,397.888611 
	C682.710144,397.888611 685.817017,397.888611 689.411743,397.888611 
	C689.411743,408.388489 689.411743,418.593842 689.411743,428.705627 
	C691.988464,428.705627 694.047974,428.705627 696.435913,428.705627 
	C696.435913,418.314545 696.435913,408.241913 696.435913,397.687561 
	C698.569153,397.687561 700.361145,397.687561 703.073730,397.687561 
M522.293762,424.201050 
	C522.293762,415.480743 522.293762,406.760437 522.293762,397.674835 
	C526.210083,397.674835 529.467896,397.674835 532.856079,397.674835 
	C532.856079,395.563049 532.856079,393.835052 532.856079,392.113342 
	C523.459290,392.113342 514.351990,392.113342 505.144592,392.113342 
	C505.144592,394.009521 505.144592,395.761688 505.144592,397.963562 
	C508.665588,397.963562 511.897461,397.963562 515.440430,397.963562 
	C515.440430,408.499115 515.440430,418.586792 515.440430,428.801941 
	C517.866089,428.801941 519.949829,428.801941 522.293701,428.801941 
	C522.293701,427.424835 522.293701,426.273376 522.293762,424.201050 
M402.000305,413.496765 
	C402.000305,418.589569 402.000305,423.682373 402.000305,428.777679 
	C404.607971,428.777679 406.686432,428.777679 408.753510,428.777679 
	C408.753510,416.391266 408.753510,404.230255 408.753510,392.312469 
	C406.319824,392.312469 404.247437,392.312469 402.000305,392.312469 
	C402.000305,399.248413 402.000305,405.873352 402.000305,413.496765 
M673.429565,392.004822 
	C671.681763,392.004822 669.934021,392.004822 668.261353,392.004822 
	C668.261353,404.664307 668.261353,416.715973 668.261353,428.776184 
	C670.604004,428.776184 672.682495,428.776184 675.109497,428.776184 
	C675.109497,420.454803 675.187317,412.350769 675.076721,404.249329 
	C675.021179,400.183746 674.622986,396.122864 673.429565,392.004822 
M358.387604,392.060211 
	C356.311737,392.060211 354.235870,392.060211 352.272217,392.060211 
	C352.272217,404.691620 352.272217,416.742615 352.272217,428.764526 
	C354.626617,428.764526 356.705536,428.764526 359.046387,428.764526 
	C359.046387,416.607269 359.046387,404.683105 358.387604,392.060211 
M295.291046,410.312439 
	C292.327850,410.312439 289.364655,410.312439 286.129028,410.312439 
	C286.129028,412.280273 286.129028,414.029053 286.129028,415.727661 
	C290.991486,415.727661 295.715759,415.727661 300.729858,415.727661 
	C300.618683,413.839630 300.526215,412.269287 300.410950,410.312469 
	C298.784088,410.312469 297.492279,410.312469 295.291046,410.312439 
M500.419952,411.011536 
	C495.730560,410.689301 491.041199,410.367035 486.110413,410.028229 
	C486.110413,412.397186 486.110413,414.137299 486.110413,415.673248 
	C491.111053,415.673248 495.850037,415.673248 500.658142,415.673248 
	C500.658142,414.160248 500.658142,413.001801 500.419952,411.011536 
z"/>
<path fill="#FE8652" opacity="1.000000" stroke="none" 
	d="
M33.054897,468.846985 
	C27.950111,468.429749 25.236116,465.390930 24.386366,459.977356 
	C24.800875,458.649963 24.986359,457.999115 24.986591,457.348206 
	C25.001080,416.831299 25.007992,376.314392 24.965624,335.797516 
	C24.964319,334.549896 24.436842,333.302826 24.154671,332.055481 
	C24.501171,326.891754 27.716240,324.340759 33.007511,323.382568 
	C34.327686,323.795532 34.978218,323.985260 35.628815,323.985474 
	C79.144913,324.000458 122.661026,324.007050 166.177094,323.966675 
	C167.429352,323.965515 168.681107,323.452087 169.933105,323.177490 
	C174.986176,323.630493 177.779099,326.580688 178.624359,332.003906 
	C178.204849,333.326813 178.014786,333.977295 178.014557,334.627838 
	C177.999466,375.153229 177.992310,415.678589 178.034500,456.203949 
	C178.035812,457.451385 178.564560,458.698273 178.847412,459.945435 
	C178.463699,465.074829 175.360748,467.731415 169.995255,468.623474 
	C168.340683,468.203400 167.357773,468.012024 166.374802,468.011688 
	C123.348412,467.996826 80.322014,467.990723 37.295666,468.034424 
	C35.881805,468.035858 34.468475,468.564240 33.054897,468.846985 
M52.957607,375.809448 
	C51.951546,380.809753 50.236664,385.784302 50.054180,390.814484 
	C48.848240,424.056488 80.307381,450.629456 112.080399,444.059570 
	C136.935822,438.920044 154.446045,418.254700 154.900589,393.279846 
	C155.200897,376.779938 147.946014,363.017365 135.242493,352.739899 
	C123.930183,343.587921 110.691353,339.135803 95.925919,341.411438 
	C75.428162,344.570465 61.518692,356.298279 52.957607,375.809448 
z"/>
<path fill="#0A0A0A" opacity="1.000000" stroke="none" 
	d="
M319.059021,397.718964 
	C321.463837,404.819672 323.785980,411.529358 326.576202,419.591461 
	C330.085663,409.664124 333.145844,401.007690 336.266968,392.178955 
	C339.221832,392.178955 342.169586,392.178955 345.395294,392.178955 
	C345.395294,404.307129 345.395294,416.377228 345.395294,428.734009 
	C343.264130,428.734009 341.185852,428.734009 338.474823,428.734009 
	C338.474823,421.424866 338.474823,414.118744 338.474823,406.812622 
	C338.060791,406.744232 337.646759,406.675812 337.232758,406.607422 
	C334.928467,412.867676 332.752655,419.180511 330.225952,425.349670 
	C329.624115,426.819122 327.885651,428.703979 326.603790,428.755615 
	C325.422485,428.803253 323.600769,426.866791 323.016449,425.418762 
	C320.441803,419.038788 318.212769,412.519379 314.843201,406.193146 
	C314.843201,413.646179 314.843201,421.099213 314.843201,428.776733 
	C312.198181,428.776733 310.107025,428.776733 307.878418,428.776733 
	C307.878418,416.566376 307.878418,404.452362 307.878418,392.159882 
	C310.831024,392.159882 313.628021,392.159882 316.795013,392.159882 
	C317.467590,393.753296 318.222015,395.540649 319.059021,397.718964 
z"/>
<path fill="#070707" opacity="1.000000" stroke="none" 
	d="
M603.932800,391.987335 
	C606.025269,392.953949 608.311646,393.515289 609.263611,394.957489 
	C613.367065,401.174286 617.079407,407.649323 622.169495,413.924683 
	C622.169495,406.729492 622.169495,399.534271 622.169495,392.188599 
	C625.371887,392.188599 627.648254,392.188599 629.942627,392.188599 
	C629.942627,404.499390 629.942627,416.607880 629.942627,428.593201 
	C625.065552,430.113098 622.162415,428.491333 619.877075,424.050049 
	C616.548767,417.582062 612.508850,411.480255 607.957520,403.857635 
	C607.957520,413.018707 607.957520,420.783600 607.957520,428.770996 
	C605.193115,428.770996 603.103699,428.770996 600.729858,428.770996 
	C600.729858,417.347351 600.665100,406.032745 600.850403,394.722260 
	C600.865601,393.796326 602.585083,392.898346 603.932800,391.987335 
z"/>
<path fill="#070707" opacity="1.000000" stroke="none" 
	d="
M445.126587,403.041595 
	C445.126587,411.851776 445.126587,420.168396 445.126587,428.416504 
	C440.016693,430.419098 437.177979,428.384125 434.824249,423.916473 
	C431.446198,417.504730 427.460022,411.413391 422.866882,405.277588 
	C422.866882,413.067383 422.866882,420.857178 422.866882,428.818359 
	C420.275360,428.818359 418.323273,428.818359 416.049042,428.818359 
	C416.049042,416.765472 416.049042,404.715576 416.049042,392.386078 
	C420.115540,391.123322 423.072906,391.855530 425.358673,396.309662 
	C428.506683,402.444122 432.415619,408.188110 437.232300,413.902252 
	C437.232300,406.809387 437.232300,399.716522 437.232300,392.308228 
	C440.225159,392.308228 442.443604,392.308228 445.126617,392.308228 
	C445.126617,395.670349 445.126617,399.109192 445.126587,403.041595 
z"/>
<path fill="#070707" opacity="1.000000" stroke="none" 
	d="
M377.922058,412.148804 
	C376.405273,409.598480 375.028229,407.390442 372.797058,403.812775 
	C372.797058,413.115601 372.797058,420.927094 372.797058,428.867401 
	C370.197906,428.867401 368.226898,428.867401 365.992279,428.867401 
	C365.992279,416.682037 365.992279,404.593506 365.992279,392.464142 
	C370.596344,390.870972 373.445435,392.445251 375.715454,396.889465 
	C378.757660,402.845490 382.547516,408.419586 386.016388,414.157684 
	C386.462952,414.039124 386.909485,413.920563 387.356049,413.802032 
	C387.356049,406.667999 387.356049,399.533966 387.356049,392.193634 
	C390.347992,392.193634 392.622986,392.193634 394.963684,392.193634 
	C394.963684,404.457703 394.963684,416.577606 394.963684,428.617828 
	C390.164856,430.017181 387.031860,428.691650 384.907166,424.074066 
	C383.042297,420.021271 380.374817,416.337738 377.922058,412.148804 
z"/>
<path fill="#0A0A0A" opacity="1.000000" stroke="none" 
	d="
M249.950256,420.531982 
	C248.281525,426.713287 243.692551,428.519775 238.493546,428.888550 
	C233.379913,429.251221 228.220444,428.967651 222.902039,428.967651 
	C222.902039,416.595520 222.902039,404.483154 222.902039,391.675995 
	C228.663254,392.039612 234.265656,392.227356 239.828293,392.800751 
	C243.737900,393.203766 246.857040,395.316315 247.872101,399.253143 
	C248.893539,403.214691 248.112625,406.892639 243.775711,409.465302 
	C248.561020,411.639008 250.571854,415.203949 249.950256,420.531982 
M242.497757,416.051300 
	C239.297638,410.234039 234.219543,413.516388 230.015259,412.685364 
	C230.015259,416.672729 230.015259,419.901245 230.015259,423.328247 
	C232.503967,423.328247 234.646393,423.354431 236.787979,423.322693 
	C241.049408,423.259583 243.330688,421.346405 242.497757,416.051300 
M230.618729,407.636505 
	C232.750504,407.565948 235.185425,408.110077 236.928101,407.250580 
	C238.642441,406.405029 240.693329,404.123444 240.674301,402.494415 
	C240.656281,400.952606 238.403305,398.782990 236.656952,398.090118 
	C234.720673,397.321930 232.244583,397.914429 229.952118,397.914429 
	C229.952118,401.168396 229.952118,404.093170 230.618729,407.636505 
z"/>
<path fill="#0A0A0A" opacity="1.000000" stroke="none" 
	d="
M559.081787,412.288574 
	C560.610535,415.534119 562.064392,418.432861 562.935913,421.497253 
	C563.587219,423.787811 563.487244,426.292023 563.723022,428.712799 
	C555.884949,429.506775 555.869385,429.494263 555.719971,422.070374 
	C555.574829,414.863037 553.688721,413.605865 543.701050,414.432739 
	C543.701050,419.150970 543.701050,423.919769 543.701050,428.848572 
	C541.240356,428.848572 539.277222,428.848572 537.016357,428.848572 
	C537.016357,416.728455 537.016357,404.657593 537.016357,391.756836 
	C542.535095,392.054688 548.184631,391.796997 553.610168,392.778076 
	C562.830139,394.445221 565.327454,402.860535 559.107361,409.788666 
	C558.686646,410.257263 558.859741,411.259094 559.081787,412.288574 
M544.417725,397.816223 
	C544.100342,401.308838 543.782959,404.801422 543.486450,408.064117 
	C544.598389,408.468781 544.891541,408.658600 545.193115,408.673004 
	C552.369690,409.016754 555.095337,407.627930 555.292847,403.551117 
	C555.504944,399.172943 552.950195,397.662537 544.417725,397.816223 
z"/>
<path fill="#0A0A0A" opacity="1.000000" stroke="none" 
	d="
M472.299622,420.821899 
	C472.322205,418.692017 472.322205,417.043335 472.322205,415.018860 
	C470.079041,414.818573 468.011536,414.634003 465.646729,414.422852 
	C465.646729,412.919067 465.646729,411.541992 465.646729,410.056213 
	C470.309204,410.056213 474.765228,410.056213 479.669067,410.056213 
	C479.669067,414.185852 479.827606,418.149750 479.578918,422.087952 
	C479.497314,423.380981 478.674774,425.024414 477.653442,425.795288 
	C471.820007,430.198090 465.182037,430.608917 458.741089,427.874817 
	C452.786102,425.347076 450.397736,420.090668 450.703827,413.632019 
	C450.806305,411.470337 450.700378,409.299530 450.723358,407.133240 
	C450.845001,395.673767 459.545319,389.054474 470.597015,392.180969 
	C475.700134,393.624603 478.836975,396.945526 479.067841,403.054810 
	C476.915161,403.155243 474.849854,403.251617 472.488495,403.361786 
	C471.719269,398.505829 468.668732,396.337402 464.109924,397.311066 
	C459.811188,398.229095 457.978455,401.514526 458.014709,405.854858 
	C458.043945,409.354340 457.354919,413.040283 458.249664,416.295807 
	C458.985931,418.974701 461.101959,422.083099 463.476105,423.288940 
	C466.160706,424.652435 470.023987,424.935211 472.299622,420.821899 
z"/>
<path fill="#0A0A0A" opacity="1.000000" stroke="none" 
	d="
M266.330383,429.276001 
	C257.614105,428.329926 254.356659,425.504700 253.459686,418.113831 
	C255.529221,418.113831 257.581299,418.113831 259.983215,418.113831 
	C260.952240,423.229980 264.751556,424.733673 269.541016,423.696808 
	C271.130463,423.352692 273.227600,421.502899 273.504517,420.040741 
	C273.775787,418.608521 272.438995,416.075714 271.078430,415.291107 
	C267.953827,413.489227 264.319580,412.600220 261.011871,411.080170 
	C255.661758,408.621552 253.237289,404.672607 254.063812,400.254944 
	C254.894913,395.812805 259.190125,392.370178 264.592041,391.816559 
	C273.956757,390.856812 279.184784,394.186493 280.460754,402.277710 
	C278.370697,402.277710 276.321991,402.277710 273.989502,402.277710 
	C272.891235,398.758453 270.424377,396.346008 266.345215,397.268616 
	C264.527283,397.679810 262.060364,399.237335 261.665741,400.741089 
	C261.306549,402.110077 262.954468,404.709198 264.432159,405.693817 
	C266.718689,407.217407 269.638458,407.767029 272.245087,408.838318 
	C279.073944,411.644867 281.963226,415.762909 280.920898,421.073608 
	C279.953094,426.004578 275.521454,428.991425 268.739502,429.273560 
	C268.074646,429.301208 267.407715,429.278717 266.330383,429.276001 
z"/>
<path fill="#0A0A0A" opacity="1.000000" stroke="none" 
	d="
M659.180725,394.770355 
	C660.682190,397.210602 661.885254,399.434265 663.354187,402.149292 
	C659.090881,402.844666 656.366150,403.482788 654.144348,399.441254 
	C653.270081,397.851074 649.222717,397.510742 646.644958,397.575836 
	C645.485352,397.605042 643.178162,400.560608 643.487610,401.257202 
	C644.383728,403.274200 646.050476,405.317657 647.952942,406.432068 
	C650.779663,408.087952 654.181641,408.729767 657.132385,410.213684 
	C661.158875,412.238495 663.492493,415.568481 662.982544,420.294647 
	C662.465271,425.088715 659.201416,427.544678 654.963013,428.806183 
	C645.780823,431.539093 636.658020,427.173920 635.397888,419.557648 
	C635.322998,419.104706 635.534119,418.604431 635.644287,417.929260 
	C637.651306,417.929260 639.615906,417.929260 641.890320,417.929260 
	C642.910034,423.109985 646.644104,424.737457 651.463806,423.710785 
	C653.068176,423.369019 655.190491,421.571655 655.492981,420.111755 
	C655.788696,418.684662 654.490479,416.107147 653.142883,415.324860 
	C650.023010,413.513763 646.387207,412.620636 643.075806,411.103851 
	C637.680969,408.632690 635.260315,404.750153 636.055054,400.316162 
	C636.852112,395.869080 641.153137,391.881348 646.533936,391.986694 
	C650.665222,392.067596 654.767334,393.643005 659.180725,394.770355 
z"/>
<path fill="#070707" opacity="1.000000" stroke="none" 
	d="
M584.431824,392.058655 
	C587.040527,398.125031 589.293762,404.109558 591.420349,410.138763 
	C593.567322,416.225616 595.588562,422.356812 597.766907,428.769165 
	C595.240417,428.769165 592.982483,428.769165 590.292847,428.769165 
	C589.481750,426.380676 588.603333,423.794037 587.705811,421.151001 
	C583.690918,421.151001 579.885559,421.151001 575.731689,421.151001 
	C574.839294,423.642090 573.908630,426.239807 572.993347,428.794800 
	C570.543396,428.794800 568.268433,428.794800 565.625610,428.794800 
	C569.806702,416.423401 573.883789,404.359436 578.062012,391.996399 
	C580.103088,391.996399 582.061951,391.996399 584.431824,392.058655 
M585.215698,412.952393 
	C584.138977,409.542389 583.062195,406.132385 581.659546,401.690063 
	C580.101868,406.793762 578.885010,410.780762 577.181458,416.362640 
	C580.769104,415.199188 583.141235,414.429932 585.215698,412.952393 
z"/>
<path fill="#070707" opacity="1.000000" stroke="none" 
	d="
M206.909180,409.701660 
	C208.723129,403.607635 210.454758,397.908569 212.200516,392.162994 
	C214.574493,392.162994 216.866501,392.162994 219.717072,392.162994 
	C215.540283,404.503540 211.473572,416.518860 207.441406,428.432129 
	C200.044830,429.686768 200.073624,429.677063 197.854523,423.097015 
	C194.417496,412.905487 190.936584,402.728729 187.361908,392.215210 
	C190.060425,392.215210 192.341141,392.215210 194.902252,392.215210 
	C197.630325,401.296997 200.386246,410.471497 203.479446,420.768768 
	C204.811752,416.521179 205.819321,413.308899 206.909180,409.701660 
z"/>
<path fill="#0E0E0E" opacity="1.000000" stroke="none" 
	d="
M702.613403,397.687561 
	C700.361145,397.687561 698.569153,397.687561 696.435913,397.687561 
	C696.435913,408.241913 696.435913,418.314545 696.435913,428.705627 
	C694.047974,428.705627 691.988464,428.705627 689.411743,428.705627 
	C689.411743,418.593842 689.411743,408.388489 689.411743,397.888611 
	C685.817017,397.888611 682.710144,397.888611 679.094116,397.888611 
	C679.000000,395.888306 678.919067,394.167572 678.826477,392.200256 
	C688.353638,392.200256 697.562195,392.200256 706.958679,392.200256 
	C706.958679,393.899658 706.958679,395.512970 706.958679,397.687561 
	C705.578857,397.687561 704.326294,397.687561 702.613403,397.687561 
z"/>
<path fill="#0E0E0E" opacity="1.000000" stroke="none" 
	d="
M522.293701,424.661469 
	C522.293701,426.273376 522.293701,427.424835 522.293701,428.801941 
	C519.949829,428.801941 517.866089,428.801941 515.440430,428.801941 
	C515.440430,418.586792 515.440430,408.499115 515.440430,397.963562 
	C511.897461,397.963562 508.665588,397.963562 505.144592,397.963562 
	C505.144592,395.761688 505.144592,394.009521 505.144592,392.113342 
	C514.351990,392.113342 523.459290,392.113342 532.856079,392.113342 
	C532.856079,393.835052 532.856079,395.563049 532.856079,397.674835 
	C529.467896,397.674835 526.210083,397.674835 522.293762,397.674835 
	C522.293762,406.760437 522.293762,415.480743 522.293701,424.661469 
z"/>
<path fill="#000000" opacity="1.000000" stroke="none" 
	d="
M402.000305,412.997559 
	C402.000305,405.873352 402.000305,399.248413 402.000305,392.312469 
	C404.247437,392.312469 406.319824,392.312469 408.753510,392.312469 
	C408.753510,404.230255 408.753510,416.391266 408.753510,428.777679 
	C406.686432,428.777679 404.607971,428.777679 402.000305,428.777679 
	C402.000305,423.682373 402.000305,418.589569 402.000305,412.997559 
z"/>
<path fill="#000000" opacity="1.000000" stroke="none" 
	d="
M673.904663,392.032349 
	C674.622986,396.122864 675.021179,400.183746 675.076721,404.249329 
	C675.187317,412.350769 675.109497,420.454803 675.109497,428.776184 
	C672.682495,428.776184 670.604004,428.776184 668.261353,428.776184 
	C668.261353,416.715973 668.261353,404.664307 668.261353,392.004822 
	C669.934021,392.004822 671.681763,392.004822 673.904663,392.032349 
z"/>
<path fill="#000000" opacity="1.000000" stroke="none" 
	d="
M358.716980,392.409546 
	C359.046387,404.683105 359.046387,416.607269 359.046387,428.764526 
	C356.705536,428.764526 354.626617,428.764526 352.272217,428.764526 
	C352.272217,416.742615 352.272217,404.691620 352.272217,392.060211 
	C354.235870,392.060211 356.311737,392.060211 358.716980,392.409546 
z"/>
<path fill="#F47E29" opacity="1.000000" stroke="none" 
	d="
M33.516457,468.909485 
	C34.468475,468.564240 35.881805,468.035858 37.295666,468.034424 
	C80.322014,467.990723 123.348412,467.996826 166.374802,468.011688 
	C167.357773,468.012024 168.340683,468.203400 169.631256,468.576569 
	C133.616516,468.898254 97.294144,468.953247 60.971752,468.996796 
	C51.973862,469.007599 42.975925,468.981262 33.516457,468.909485 
z"/>
<path fill="#F47E29" opacity="1.000000" stroke="none" 
	d="
M169.473312,323.107849 
	C168.681107,323.452087 167.429352,323.965515 166.177094,323.966675 
	C122.661026,324.007050 79.144913,324.000458 35.628815,323.985474 
	C34.978218,323.985260 34.327686,323.795532 33.369293,323.423645 
	C69.048325,323.102112 105.035179,323.045929 141.022049,323.003754 
	C150.352509,322.992828 159.683029,323.025543 169.473312,323.107849 
z"/>
<path fill="#F47E29" opacity="1.000000" stroke="none" 
	d="
M24.092133,332.516998 
	C24.436842,333.302826 24.964319,334.549896 24.965624,335.797516 
	C25.007992,376.314392 25.001080,416.831299 24.986591,457.348206 
	C24.986359,457.999115 24.800875,458.649963 24.439407,459.613342 
	C24.118111,432.605072 24.045160,405.284302 24.005966,377.963501 
	C23.984453,362.968536 24.019855,347.973511 24.092133,332.516998 
z"/>
<path fill="#F47E29" opacity="1.000000" stroke="none" 
	d="
M178.909546,459.483795 
	C178.564560,458.698273 178.035812,457.451385 178.034500,456.203949 
	C177.992310,415.678589 177.999466,375.153229 178.014557,334.627838 
	C178.014786,333.977295 178.204849,333.326813 178.577118,332.368530 
	C178.889160,374.381256 178.930420,416.701691 178.909546,459.483795 
z"/>
<path fill="#0E0E0E" opacity="1.000000" stroke="none" 
	d="
M295.745728,410.312439 
	C297.492279,410.312469 298.784088,410.312469 300.410950,410.312469 
	C300.526215,412.269287 300.618683,413.839630 300.729858,415.727661 
	C295.715759,415.727661 290.991486,415.727661 286.129028,415.727661 
	C286.129028,414.029053 286.129028,412.280273 286.129028,410.312439 
	C289.364655,410.312439 292.327850,410.312439 295.745728,410.312439 
z"/>
<path fill="#0E0E0E" opacity="1.000000" stroke="none" 
	d="
M500.539062,411.427429 
	C500.658142,413.001801 500.658142,414.160248 500.658142,415.673248 
	C495.850037,415.673248 491.111053,415.673248 486.110413,415.673248 
	C486.110413,414.137299 486.110413,412.397186 486.110413,410.028229 
	C491.041199,410.367035 495.730560,410.689301 500.539062,411.427429 
z"/>
<path fill="#FDFEFE" opacity="1.000000" stroke="none" 
	d="
M53.112831,375.447021 
	C61.518692,356.298279 75.428162,344.570465 95.925919,341.411438 
	C110.691353,339.135803 123.930183,343.587921 135.242493,352.739899 
	C147.946014,363.017365 155.200897,376.779938 154.900589,393.279846 
	C154.446045,418.254700 136.935822,438.920044 112.080399,444.059570 
	C80.307381,450.629456 48.848240,424.056488 50.054180,390.814484 
	C50.236664,385.784302 51.951546,380.809753 53.112831,375.447021 
M103.536369,400.063995 
	C103.602066,401.619476 103.667763,403.174957 103.461479,405.381531 
	C103.552216,407.009766 103.642952,408.638031 103.541168,410.917908 
	C103.671997,411.336761 103.802826,411.755585 104.167183,412.938416 
	C104.305794,414.474884 104.444397,416.011383 104.533752,417.001892 
	C108.049370,417.001892 111.193207,417.001892 114.209755,417.001892 
	C114.001511,415.750702 113.764397,414.326019 114.508675,412.822113 
	C115.163933,412.849701 115.819191,412.877319 116.426697,413.684174 
	C116.637611,415.034943 116.848526,416.385742 117.059441,417.736511 
	C117.640129,417.747711 118.220825,417.758911 118.801514,417.770111 
	C119.044792,416.160431 119.288063,414.550720 120.266228,412.668060 
	C124.666756,409.167297 122.585915,404.410675 122.005333,400.339203 
	C121.854210,399.279297 117.405411,398.719574 114.879784,398.158569 
	C113.619133,397.878479 112.195236,397.898712 110.936066,398.184082 
	C109.928322,398.412445 108.240105,399.271454 108.256493,399.807709 
	C108.381409,403.894745 108.850967,407.971252 109.183968,412.798828 
	C107.573898,415.107544 106.500969,414.736237 106.168411,411.213989 
	C106.165817,407.750824 106.305923,404.277405 106.057648,400.831940 
	C105.997566,399.998230 104.655090,399.256927 103.627502,398.507843 
	C103.467804,398.779724 103.481392,399.042175 103.536369,400.063995 
M100.017921,412.117188 
	C103.089821,406.512970 101.794495,404.134613 95.648941,404.095764 
	C94.316551,404.087341 92.945801,404.265686 91.666397,404.001343 
	C90.917603,403.846680 90.314507,402.986725 89.645859,402.444061 
	C90.349617,401.936768 91.065498,400.980469 91.755074,400.999084 
	C94.925812,401.084625 98.089218,401.442352 101.255249,401.702423 
	C101.456482,401.346039 101.657715,400.989685 101.858940,400.633301 
	C100.554222,399.792084 99.331497,398.451080 97.926582,398.220551 
	C95.493774,397.821442 92.797760,397.606995 90.503815,398.291901 
	C89.031342,398.731567 87.477158,400.755157 87.035660,402.364044 
	C86.335670,404.914856 87.406326,406.951324 90.645981,406.871307 
	C93.245865,406.807098 95.848610,406.858337 98.707840,406.858337 
	C97.259796,410.607880 95.517990,410.856628 86.662231,409.800507 
	C87.588676,410.714783 88.515121,411.629059 89.922638,413.093903 
	C90.046394,414.519958 90.170158,415.946014 90.213409,416.444397 
	C93.660149,416.893311 96.683060,417.287018 99.860672,417.700897 
	C99.646919,415.446930 99.500336,413.901215 100.017921,412.117188 
M97.466125,370.093170 
	C97.374290,370.453278 97.282455,370.813416 96.847885,371.774170 
	C94.728996,375.944672 92.610107,380.115143 90.098358,383.724365 
	C88.034714,379.401947 86.003242,375.063782 83.898888,370.761292 
	C81.513931,365.885010 78.258957,364.743011 72.636589,367.045013 
	C75.585220,373.688629 78.515793,380.334290 81.483849,386.963135 
	C83.289932,390.996796 84.427780,395.926666 90.036819,396.136139 
	C95.926247,396.356110 96.565849,390.923859 98.992325,386.789795 
	C100.873032,382.732178 102.753746,378.674561 105.094284,375.220001 
	C107.658287,380.415924 110.178650,385.634003 112.798622,390.801544 
	C115.387520,395.907806 118.825523,397.259979 124.801163,395.491913 
	C120.767616,386.769958 117.059982,377.914093 112.520775,369.507233 
	C111.335960,367.312836 107.690399,365.736542 104.943474,365.285095 
	C101.860519,364.778473 98.771568,366.226501 97.995468,370.020203 
	C97.995468,370.020203 98.047523,370.013855 97.466125,370.093170 
M138.149887,412.499908 
	C140.143173,407.613007 139.650986,402.845886 138.389755,398.115814 
	C137.856201,398.102539 137.322647,398.089264 136.789078,398.075989 
	C136.568039,401.012024 136.347000,403.948029 136.112183,407.067017 
	C131.512558,404.887848 130.724258,398.676758 125.412743,398.036652 
	C125.412743,403.288757 125.412743,408.028564 125.412743,412.768372 
	C125.924316,412.784912 126.435898,412.801422 126.947472,412.817963 
	C127.161705,409.638672 127.375931,406.459412 127.602524,403.096649 
	C131.119034,406.587646 134.321411,409.766785 138.149887,412.499908 
M65.983116,405.583160 
	C67.464386,408.138489 68.945656,410.693817 71.197144,414.577820 
	C74.744598,408.716003 77.766060,403.723297 80.787521,398.730621 
	C80.292389,398.363739 79.797256,397.996826 79.302116,397.629944 
	C75.372246,400.202545 74.514458,405.320038 71.533463,408.678741 
	C67.787682,405.910980 67.995102,399.631744 62.002701,398.700134 
	C63.215889,400.778412 64.429085,402.856659 65.983116,405.583160 
M85.084923,406.416016 
	C84.957573,403.638763 84.830223,400.861511 84.651505,396.964111 
	C81.337250,401.705505 81.710968,410.844879 85.086777,413.049896 
	C85.086777,410.854767 85.086777,409.099518 85.084923,406.416016 
M106.522720,391.265869 
	C104.888062,391.146240 103.253403,391.026611 101.618752,390.907013 
	C101.396820,391.585754 101.174896,392.264496 100.952972,392.943237 
	C102.678513,394.018433 104.404045,395.093658 106.528381,396.417358 
	C106.813759,394.102356 106.978157,392.768738 106.522720,391.265869 
z"/>
<path fill="#FDFEFE" opacity="1.000000" stroke="none" 
	d="
M242.628723,416.438873 
	C243.330688,421.346405 241.049408,423.259583 236.787979,423.322693 
	C234.646393,423.354431 232.503967,423.328247 230.015259,423.328247 
	C230.015259,419.901245 230.015259,416.672729 230.015259,412.685364 
	C234.219543,413.516388 239.297638,410.234039 242.628723,416.438873 
z"/>
<path fill="#FDFEFE" opacity="1.000000" stroke="none" 
	d="
M230.285431,407.327209 
	C229.952118,404.093170 229.952118,401.168396 229.952118,397.914429 
	C232.244583,397.914429 234.720673,397.321930 236.656952,398.090118 
	C238.403305,398.782990 240.656281,400.952606 240.674301,402.494415 
	C240.693329,404.123444 238.642441,406.405029 236.928101,407.250580 
	C235.185425,408.110077 232.750504,407.565948 230.285431,407.327209 
z"/>
<path fill="#FDFEFE" opacity="1.000000" stroke="none" 
	d="
M544.894775,397.750854 
	C552.950195,397.662537 555.504944,399.172943 555.292847,403.551117 
	C555.095337,407.627930 552.369690,409.016754 545.193115,408.673004 
	C544.891541,408.658600 544.598389,408.468781 543.486450,408.064117 
	C543.782959,404.801422 544.100342,401.308838 544.894775,397.750854 
z"/>
<path fill="#FDFEFE" opacity="1.000000" stroke="none" 
	d="
M585.364563,413.306519 
	C583.141235,414.429932 580.769104,415.199188 577.181458,416.362640 
	C578.885010,410.780762 580.101868,406.793762 581.659546,401.690063 
	C583.062195,406.132385 584.138977,409.542389 585.364563,413.306519 
z"/>
<path fill="#5D60E9" opacity="1.000000" stroke="none" 
	d="
M98.011208,370.069946 
	C98.771568,366.226501 101.860519,364.778473 104.943474,365.285095 
	C107.690399,365.736542 111.335960,367.312836 112.520775,369.507233 
	C117.059982,377.914093 120.767616,386.769958 124.801163,395.491913 
	C118.825523,397.259979 115.387520,395.907806 112.798622,390.801544 
	C110.178650,385.634003 107.658287,380.415924 104.839554,374.635071 
	C102.393616,372.723389 100.202408,371.396667 98.011208,370.069946 
z"/>
<path fill="#5D60E9" opacity="1.000000" stroke="none" 
	d="
M98.720238,387.209259 
	C96.565849,390.923859 95.926247,396.356110 90.036819,396.136139 
	C84.427780,395.926666 83.289932,390.996796 81.483849,386.963135 
	C78.515793,380.334290 75.585220,373.688629 72.636589,367.045013 
	C78.258957,364.743011 81.513931,365.885010 83.898888,370.761292 
	C86.003242,375.063782 88.034714,379.401947 90.404984,384.339783 
	C92.445580,389.030640 95.274986,389.213989 98.720238,387.209259 
z"/>
<path fill="#FE8652" opacity="1.000000" stroke="none" 
	d="
M98.856277,386.999512 
	C95.274986,389.213989 92.445580,389.030640 90.601410,384.620422 
	C92.610107,380.115143 94.728996,375.944672 97.298584,371.367371 
	C97.848694,370.645020 97.948105,370.329437 98.047516,370.013855 
	C98.047523,370.013855 97.995468,370.020203 98.003334,370.045074 
	C100.202408,371.396667 102.393616,372.723389 104.609634,374.333527 
	C102.753746,378.674561 100.873032,382.732178 98.856277,386.999512 
z"/>
<path fill="#2F7FD2" opacity="1.000000" stroke="none" 
	d="
M89.441574,412.543335 
	C88.515121,411.629059 87.588676,410.714783 86.662231,409.800507 
	C95.517990,410.856628 97.259796,410.607880 98.707840,406.858337 
	C95.848610,406.858337 93.245865,406.807098 90.645981,406.871307 
	C87.406326,406.951324 86.335670,404.914856 87.035660,402.364044 
	C87.477158,400.755157 89.031342,398.731567 90.503815,398.291901 
	C92.797760,397.606995 95.493774,397.821442 97.926582,398.220551 
	C99.331497,398.451080 100.554222,399.792084 101.858940,400.633301 
	C101.657715,400.989685 101.456482,401.346039 101.255249,401.702423 
	C98.089218,401.442352 94.925812,401.084625 91.755074,400.999084 
	C91.065498,400.980469 90.349617,401.936768 89.645859,402.444061 
	C90.314507,402.986725 90.917603,403.846680 91.666397,404.001343 
	C92.945801,404.265686 94.316551,404.087341 95.648941,404.095764 
	C101.794495,404.134613 103.089821,406.512970 99.308273,412.144867 
	C97.083366,412.282013 95.568108,412.391449 93.703110,412.592529 
	C92.874245,412.668854 92.395126,412.653473 91.636337,412.462830 
	C90.718307,412.372833 90.079941,412.458069 89.441574,412.543335 
z"/>
<path fill="#2F7FD2" opacity="1.000000" stroke="none" 
	d="
M109.213234,412.051056 
	C108.850967,407.971252 108.381409,403.894745 108.256493,399.807709 
	C108.240105,399.271454 109.928322,398.412445 110.936066,398.184082 
	C112.195236,397.898712 113.619133,397.878479 114.879784,398.158569 
	C117.405411,398.719574 121.854210,399.279297 122.005333,400.339203 
	C122.585915,404.410675 124.666756,409.167297 119.913773,412.812256 
	C119.561310,412.956482 119.540489,412.967194 119.028183,412.905914 
	C117.830833,412.886230 117.145798,412.927826 116.451469,412.952057 
	C116.442184,412.934692 116.474449,412.904938 116.474449,412.904938 
	C115.819191,412.877319 115.163933,412.849701 114.033897,412.878479 
	C113.559120,412.934875 113.538818,412.968903 113.104645,412.898926 
	C112.091171,412.742737 111.511856,412.656494 110.748779,412.423218 
	C110.114426,412.201141 109.663826,412.126099 109.213234,412.051056 
M113.543777,410.038025 
	C115.471367,410.038025 117.398964,410.038025 119.542618,410.038025 
	C119.542618,406.798279 119.542618,404.094269 119.542618,401.182922 
	C116.569679,401.182922 113.864990,401.182922 109.817253,401.182922 
	C110.868309,404.522644 111.732910,407.269928 113.543777,410.038025 
z"/>
<path fill="#2F7FD2" opacity="1.000000" stroke="none" 
	d="
M137.836838,412.722900 
	C134.321411,409.766785 131.119034,406.587646 127.602524,403.096649 
	C127.375931,406.459412 127.161705,409.638672 126.947472,412.817963 
	C126.435898,412.801422 125.924316,412.784912 125.412743,412.768372 
	C125.412743,408.028564 125.412743,403.288757 125.412743,398.036652 
	C130.724258,398.676758 131.512558,404.887848 136.112183,407.067017 
	C136.347000,403.948029 136.568039,401.012024 136.789078,398.075989 
	C137.322647,398.089264 137.856201,398.102539 138.389755,398.115814 
	C139.650986,402.845886 140.143173,407.613007 137.836838,412.722900 
z"/>
<path fill="#2F7FD2" opacity="1.000000" stroke="none" 
	d="
M65.812698,405.259033 
	C64.429085,402.856659 63.215889,400.778412 62.002701,398.700134 
	C67.995102,399.631744 67.787682,405.910980 71.530746,408.676453 
	C74.514458,405.320038 75.372246,400.202545 79.302116,397.629944 
	C79.797256,397.996826 80.292389,398.363739 80.787521,398.730621 
	C77.766060,403.723297 74.744598,408.716003 71.197144,414.577820 
	C68.945656,410.693817 67.464386,408.138489 65.812698,405.259033 
z"/>
<path fill="#5D60E9" opacity="1.000000" stroke="none" 
	d="
M94.052849,412.500885 
	C95.568108,412.391449 97.083366,412.282013 98.976181,412.264008 
	C99.500336,413.901215 99.646919,415.446930 99.860672,417.700897 
	C96.683060,417.287018 93.660149,416.893311 90.213409,416.444397 
	C90.170158,415.946014 90.046394,414.519958 89.682106,412.818604 
	C90.079941,412.458069 90.718307,412.372833 91.569229,412.723572 
	C91.749802,413.336121 91.717804,413.512695 91.450928,413.866241 
	C91.614059,414.313721 92.012070,414.584259 92.745438,414.657349 
	C93.404823,413.806915 93.728836,413.153900 94.052849,412.500885 
z"/>
<path fill="#5D60E9" opacity="1.000000" stroke="none" 
	d="
M109.198601,412.424927 
	C109.663826,412.126099 110.114426,412.201141 110.741104,412.801666 
	C112.040016,415.029572 113.010361,415.616119 113.538818,412.968903 
	C113.538818,412.968903 113.559120,412.934875 113.543198,412.918091 
	C113.764397,414.326019 114.001511,415.750702 114.209755,417.001892 
	C111.193207,417.001892 108.049370,417.001892 104.533752,417.001892 
	C104.444397,416.011383 104.305794,414.474884 104.372490,412.522003 
	C105.010155,412.115601 105.442520,412.125610 105.874878,412.135590 
	C106.500969,414.736237 107.573898,415.107544 109.198601,412.424927 
z"/>
<path fill="#2F7FD2" opacity="1.000000" stroke="none" 
	d="
M85.085846,406.880127 
	C85.086777,409.099518 85.086777,410.854767 85.086777,413.049896 
	C81.710968,410.844879 81.337250,401.705505 84.651505,396.964111 
	C84.830223,400.861511 84.957573,403.638763 85.085846,406.880127 
z"/>
<path fill="#FE8652" opacity="1.000000" stroke="none" 
	d="
M106.832642,391.350525 
	C106.978157,392.768738 106.813759,394.102356 106.528381,396.417358 
	C104.404045,395.093658 102.678513,394.018433 100.952972,392.943237 
	C101.174896,392.264496 101.396820,391.585754 101.618752,390.907013 
	C103.253403,391.026611 104.888062,391.146240 106.832642,391.350525 
z"/>
<path fill="#2F7FD2" opacity="1.000000" stroke="none" 
	d="
M106.021645,411.674805 
	C105.442520,412.125610 105.010155,412.115601 104.255722,412.140015 
	C103.802826,411.755585 103.671997,411.336761 103.712807,410.135132 
	C103.834122,407.811707 103.783791,406.271057 103.733459,404.730438 
	C103.667763,403.174957 103.602066,401.619476 103.695236,399.483978 
	C103.854103,398.903961 103.902306,398.473145 103.902313,398.473145 
	C104.655090,399.256927 105.997566,399.998230 106.057648,400.831940 
	C106.305923,404.277405 106.165817,407.750824 106.021645,411.674805 
z"/>
<path fill="#5D60E9" opacity="1.000000" stroke="none" 
	d="
M116.450577,413.294556 
	C116.474449,412.904938 116.442184,412.934692 116.511459,413.338623 
	C116.880821,414.496552 117.180916,415.250549 117.759392,416.703949 
	C118.609703,414.919983 119.075089,413.943573 119.540482,412.967194 
	C119.540489,412.967194 119.561310,412.956482 119.546326,412.948761 
	C119.288063,414.550720 119.044792,416.160431 118.801514,417.770111 
	C118.220825,417.758911 117.640129,417.747711 117.059441,417.736511 
	C116.848526,416.385742 116.637611,415.034943 116.450577,413.294556 
z"/>
<path fill="#5D60E9" opacity="1.000000" stroke="none" 
	d="
M103.597473,405.055969 
	C103.783791,406.271057 103.834122,407.811707 103.809067,409.809296 
	C103.642952,408.638031 103.552216,407.009766 103.597473,405.055969 
z"/>
<path fill="#5D60E9" opacity="1.000000" stroke="none" 
	d="
M97.756821,370.053528 
	C97.948105,370.329437 97.848694,370.645020 97.469948,371.067078 
	C97.282455,370.813416 97.374290,370.453278 97.756821,370.053528 
z"/>
<path fill="#5D60E9" opacity="1.000000" stroke="none" 
	d="
M103.764908,398.490479 
	C103.902306,398.473145 103.854103,398.903961 103.761185,399.099579 
	C103.481392,399.042175 103.467804,398.779724 103.764908,398.490479 
z"/>
<path fill="#FDFEFE" opacity="1.000000" stroke="none" 
	d="
M91.685814,413.689270 
	C91.717804,413.512695 91.749802,413.336121 91.848900,412.898834 
	C92.395126,412.653473 92.874245,412.668854 93.703110,412.592529 
	C93.728836,413.153900 93.404823,413.806915 92.604034,414.341339 
	C91.980118,414.044891 91.832962,413.867065 91.685814,413.689270 
z"/>
<path fill="#FDFEFE" opacity="1.000000" stroke="none" 
	d="
M113.070648,410.027618 
	C111.732910,407.269928 110.868309,404.522644 109.817253,401.182922 
	C113.864990,401.182922 116.569679,401.182922 119.542618,401.182922 
	C119.542618,404.094269 119.542618,406.798279 119.542618,410.038025 
	C117.398964,410.038025 115.471367,410.038025 113.070648,410.027618 
z"/>
<path fill="#FDFEFE" opacity="1.000000" stroke="none" 
	d="
M119.028175,412.905914 
	C119.075089,413.943573 118.609703,414.919983 117.759392,416.703949 
	C117.180916,415.250549 116.880821,414.496552 116.520737,413.355988 
	C117.145798,412.927826 117.830833,412.886230 119.028175,412.905914 
z"/>
<path fill="#FDFEFE" opacity="1.000000" stroke="none" 
	d="
M113.104645,412.898926 
	C113.010361,415.616119 112.040016,415.029572 110.924866,412.948730 
	C111.511856,412.656494 112.091171,412.742737 113.104645,412.898926 
z"/>
<path fill="#FDFEFE" opacity="1.000000" stroke="none" 
	d="
M92.268677,414.538757 
	C92.012070,414.584259 91.614059,414.313721 91.450928,413.866241 
	C91.832962,413.867065 91.980118,414.044891 92.268677,414.538757 
z"/>
</svg>