<svg version="1.1" id="Layer_1" xmlns="http://www.w3.org/2000/svg" xmlns:xlink="http://www.w3.org/1999/xlink" x="0px" y="0px"
	 width="100%" viewBox="0 0 720 720" enable-background="new 0 0 720 720" xml:space="preserve">
<path fill="#FFFFFF" opacity="1.000000" stroke="none" 
	d="
M1.000000,302.000000 
	C1.000000,201.699127 1.000000,101.398247 1.000000,1.048683 
	C240.889908,1.048683 480.779816,1.048683 721.000000,1.048683 
	C721.000000,101.023834 721.000000,201.048035 720.536133,301.535583 
	C480.381500,301.999298 240.690750,301.999664 1.000000,302.000000 
z"/>
<path fill="#FFFFFF" opacity="1.000000" stroke="none" 
	d="
M721.000000,491.000000 
	C721.000000,567.638611 721.000000,644.277222 721.000000,720.957886 
	C481.115906,720.957886 241.231827,720.957886 1.000000,720.957886 
	C1.000000,644.644348 1.000000,568.288208 1.463884,491.466553 
	C241.618515,491.000702 481.309265,491.000336 721.000000,491.000000 
z"/>
<path fill="#191924" opacity="1.000000" stroke="none" 
	d="
M721.000000,490.536133 
	C481.309265,491.000336 241.618515,491.000702 1.463884,491.000519 
	C1.000000,428.309265 1.000000,365.618500 1.000000,302.463867 
	C240.690750,301.999664 480.381500,301.999298 720.536133,301.999481 
	C721.000000,364.690735 721.000000,427.381500 721.000000,490.536133 
M126.500000,468.961731 
	C139.995621,468.961426 153.491302,468.982361 166.986862,468.952911 
	C175.237015,468.934906 178.946884,465.284363 178.951080,457.110992 
	C178.971985,416.457092 178.969345,375.803162 178.953796,335.149261 
	C178.950562,326.674622 175.295517,323.050171 166.723297,323.046753 
	C123.236938,323.029297 79.750580,323.031403 36.264221,323.045502 
	C27.724710,323.048248 24.049623,326.688507 24.046265,335.158997 
	C24.030203,375.646301 24.029510,416.133606 24.045729,456.620911 
	C24.049280,465.485443 27.575788,468.952942 36.527908,468.956604 
	C66.185272,468.968781 95.842636,468.961517 126.500000,468.961731 
M320.744537,419.874817 
	C321.276184,421.444366 321.950684,422.981842 322.311401,424.589722 
	C323.215179,428.618347 325.352386,430.178070 329.390198,428.515656 
	C332.056793,421.298737 334.703918,414.134369 337.351074,406.970001 
	C337.695099,407.058350 338.039124,407.146698 338.383148,407.235046 
	C338.383148,414.344971 338.383148,421.454895 338.383148,428.792114 
	C340.981323,428.792114 343.220612,428.792114 345.688446,428.792114 
	C345.688446,416.558411 345.688446,404.499146 345.688446,392.467010 
	C336.343719,391.135834 336.340271,391.134613 333.494415,399.221222 
	C331.298767,405.460266 329.113129,411.702820 326.575867,418.933228 
	C323.182037,409.169556 320.201477,400.594666 317.318298,392.300018 
	C313.756622,392.300018 310.680328,392.300018 307.626526,392.300018 
	C307.626526,404.683105 307.626526,416.735565 307.626526,428.695679 
	C310.197510,428.695679 312.437256,428.695679 315.171692,428.695679 
	C315.171692,421.130554 315.171692,413.890717 315.171692,406.650879 
	C315.407593,406.636078 315.643463,406.621246 315.879364,406.606415 
	C317.377716,410.797607 318.876099,414.988800 320.744537,419.874817 
M430.622162,416.975128 
	C431.966400,419.263184 433.636993,421.424164 434.587616,423.865479 
	C436.628784,429.107513 440.273743,429.972717 445.053162,428.616608 
	C445.053162,416.339966 445.053162,404.277008 445.053162,392.220642 
	C442.480865,392.220642 440.214569,392.220642 437.210266,392.220642 
	C437.210266,399.694763 437.210266,406.947601 437.210266,414.200439 
	C432.777252,408.423279 428.895477,402.788879 425.922668,396.709961 
	C423.485687,391.726624 420.081879,391.332886 415.690002,392.316833 
	C415.690002,404.728912 415.690002,416.769592 415.690002,428.834473 
	C418.182312,428.834473 420.302338,428.834473 422.969666,428.834473 
	C422.969666,421.161652 422.969666,413.656647 422.969666,406.151611 
	C423.275574,406.079346 423.581482,406.007050 423.887390,405.934753 
	C425.990540,409.416565 428.093719,412.898346 430.622162,416.975128 
M380.215729,404.234741 
	C378.774414,401.805359 377.019012,399.504761 375.958740,396.919159 
	C373.905548,391.912140 370.384949,391.020050 365.597778,392.457947 
	C365.597778,404.590179 365.597778,416.665344 365.597778,428.715759 
	C368.127319,428.715759 370.373230,428.715759 373.202393,428.715759 
	C373.202393,420.962036 373.202393,413.497009 373.202393,404.700500 
	C377.625122,412.091583 381.704407,418.004456 384.812347,424.390106 
	C387.275116,429.450165 390.671783,429.701660 395.021362,428.608215 
	C395.021362,416.289612 395.021362,404.239777 395.021362,392.251953 
	C392.428680,392.251953 390.175110,392.251953 387.411560,392.251953 
	C387.411560,399.703217 387.411560,406.891296 387.411560,414.079346 
	C387.082855,414.177063 386.754150,414.274780 386.425446,414.372498 
	C384.494019,411.194672 382.562561,408.016846 380.215729,404.234741 
M616.247803,418.296906 
	C617.376465,420.135162 618.817261,421.854309 619.573242,423.834839 
	C621.573486,429.075043 625.248718,429.970001 630.069458,428.610901 
	C630.069458,416.365753 630.069458,404.296021 630.069458,392.204590 
	C627.507507,392.204590 625.234619,392.204590 622.233521,392.204590 
	C622.233521,399.669708 622.233521,406.929413 622.233521,414.189148 
	C617.789551,408.439728 613.908997,402.812653 610.938843,396.740234 
	C608.509277,391.773010 605.113892,391.325409 600.673584,392.311554 
	C600.673584,404.705658 600.673584,416.752899 600.673584,428.650208 
	C603.267090,428.650208 605.496826,428.650208 608.095825,428.650208 
	C608.095825,420.914368 608.095825,413.540283 608.095825,404.649200 
	C611.236267,409.832092 613.597595,413.729095 616.247803,418.296906 
M236.165939,391.978699 
	C231.712555,391.978699 227.259171,391.978699 222.559570,391.978699 
	C222.559570,404.438354 222.559570,416.488831 222.559570,428.951752 
	C228.358093,428.951752 233.974915,429.181488 239.563324,428.881500 
	C244.322586,428.626007 248.360184,426.619080 249.809372,421.619446 
	C251.367538,416.243835 249.833481,413.115784 244.339661,409.524506 
	C248.632278,406.447205 249.506531,402.285431 247.437866,397.736908 
	C245.491501,393.457275 241.337967,392.469147 236.165939,391.978699 
M564.318909,428.666870 
	C563.888489,426.238617 563.632019,423.762970 562.986877,421.393158 
	C562.014832,417.822815 560.771118,414.326416 559.376831,409.966705 
	C562.164734,408.061798 563.870239,404.277313 562.234070,399.331177 
	C560.802979,395.005035 557.434753,392.727631 553.346985,392.344543 
	C547.817810,391.826355 542.203491,392.215698 536.620483,392.215698 
	C536.620483,404.677795 536.620483,416.730988 536.620483,428.700867 
	C539.194092,428.700867 541.431946,428.700867 544.069824,428.700867 
	C544.069824,423.792480 544.069824,419.205750 544.069824,414.665039 
	C553.369812,413.903748 555.114685,414.971954 555.301636,421.250427 
	C555.534851,429.085876 555.534973,429.085876 564.318909,428.666870 
M477.774994,426.093964 
	C482.234314,421.157990 478.775055,415.393585 480.051483,409.992920 
	C474.733917,409.992920 470.024841,409.992920 465.054962,409.992920 
	C465.164246,411.788788 465.250092,413.199249 465.340088,414.678467 
	C467.785675,414.871124 469.865356,415.034943 471.879608,415.193604 
	C472.290710,422.740234 468.511078,426.066467 462.891235,422.850098 
	C460.599854,421.538727 458.956451,418.127747 458.208313,415.351318 
	C457.413055,412.400208 457.897064,409.062317 458.059723,405.905518 
	C458.273926,401.747803 459.892548,398.298279 464.401489,397.530151 
	C468.891724,396.765228 471.658051,398.978088 472.376373,403.414185 
	C474.692932,403.414185 476.793304,403.414185 478.890289,403.414185 
	C478.855103,395.054474 472.643494,390.272186 463.609009,391.370483 
	C455.916931,392.305603 450.916656,397.742767 450.319153,405.821564 
	C449.313843,419.413239 452.568695,426.685303 460.874115,428.974213 
	C466.600098,430.552277 472.071320,429.746033 477.774994,426.093964 
M269.750854,414.718262 
	C270.939423,416.615112 272.884430,418.463196 273.011139,420.428497 
	C273.078888,421.478943 270.118439,423.491425 268.336517,423.744354 
	C263.775635,424.391663 260.886292,421.920624 260.099182,417.555695 
	C257.626892,417.555695 255.505295,417.555695 253.430466,417.555695 
	C251.944733,426.338104 262.100006,430.312897 269.354523,429.664703 
	C275.792450,429.089478 280.276154,425.846497 280.975983,421.281860 
	C281.887634,415.335602 279.505249,411.682800 272.689484,408.814667 
	C270.093597,407.722351 267.157013,407.226685 264.855591,405.724091 
	C263.372131,404.755554 261.943359,402.405243 262.033508,400.758728 
	C262.098846,399.565308 264.574127,397.813538 266.187531,397.532623 
	C270.062378,396.857910 273.007050,398.466309 273.614441,402.595856 
	C276.220947,402.595856 278.460571,402.595856 280.662292,402.595856 
	C281.492828,392.996277 268.265289,388.382507 259.162567,393.267090 
	C252.239380,396.982025 251.833481,405.790558 258.563690,409.868134 
	C261.781891,411.817871 265.544250,412.869446 269.750854,414.718262 
M656.677734,428.412994 
	C660.643372,426.657318 663.059570,423.991821 663.094971,419.287109 
	C663.131958,414.371674 660.506775,411.523010 656.494873,409.660522 
	C653.343506,408.197540 649.813110,407.459442 646.851379,405.718231 
	C645.361267,404.842133 643.728882,402.215942 644.048584,400.810516 
	C644.371704,399.390106 647.232666,397.366760 648.618652,397.617310 
	C651.393127,398.118835 653.919739,399.991974 656.548645,401.298859 
	C656.354919,401.731232 656.161255,402.163635 655.967590,402.596008 
	C658.210754,402.596008 660.453918,402.596008 662.724792,402.596008 
	C661.846191,394.556366 655.424683,390.169769 646.838745,391.448273 
	C640.727051,392.358337 636.626831,395.669525 636.008240,400.194550 
	C635.264771,405.632904 637.556763,409.046753 644.023804,411.823334 
	C646.764709,413.000092 649.855164,413.545349 652.321594,415.110596 
	C653.808777,416.054413 655.239075,418.464111 655.128296,420.109650 
	C655.041260,421.402679 652.734009,423.125549 651.098816,423.621796 
	C646.924683,424.888489 643.974854,422.733124 641.996826,417.653809 
	C639.752197,417.653809 637.528442,417.653809 635.308472,417.653809 
	C635.478271,423.721283 638.044861,427.603943 643.686707,428.679352 
	C647.639587,429.432831 651.861633,428.774292 656.677734,428.412994 
M577.670166,392.770874 
	C573.602112,404.675751 569.534058,416.580597 565.351257,428.821259 
	C568.326050,428.821259 570.754639,428.821259 573.108582,428.821259 
	C576.423584,420.057892 576.423584,420.057892 587.573792,421.439056 
	C588.408691,423.840302 589.268494,426.313202 590.149719,428.847870 
	C592.748657,428.847870 595.211365,428.847870 598.001770,428.847870 
	C593.818970,416.404602 589.721497,404.215057 585.669006,392.159393 
	C582.862976,392.159393 580.547546,392.159393 577.670166,392.770874 
M195.541306,417.072510 
	C196.879044,420.961426 198.216797,424.850342 199.570480,428.785614 
	C202.374573,428.785614 204.979355,428.785614 207.546387,428.785614 
	C211.703323,416.520660 215.785675,404.475739 219.962051,392.153412 
	C217.093643,392.153412 214.636597,392.153412 211.987000,392.153412 
	C209.273575,401.105896 206.577637,410.000671 203.512543,420.113434 
	C200.455124,409.938202 197.793976,401.081757 195.111771,392.155243 
	C192.426010,392.155243 189.975708,392.155243 187.181580,392.155243 
	C189.919861,400.393799 192.572601,408.374939 195.541306,417.072510 
M689.086670,422.398865 
	C689.086670,424.509003 689.086670,426.619141 689.086670,428.735229 
	C691.862366,428.735229 694.097656,428.735229 696.770874,428.735229 
	C696.770874,418.397247 696.770874,408.340942 696.770874,397.872314 
	C700.446045,397.872314 703.686218,397.872314 707.094849,397.872314 
	C707.094849,395.702454 707.094849,393.959015 707.094849,392.169556 
	C697.569458,392.169556 688.317810,392.169556 678.911194,392.169556 
	C678.911194,394.115234 678.911194,395.857666 678.911194,398.071350 
	C682.410278,398.071350 685.639404,398.071350 689.086670,398.071350 
	C689.086670,406.167236 689.086670,413.793152 689.086670,422.398865 
M512.466980,397.914612 
	C513.340088,399.060638 514.943665,400.189850 514.970459,401.355347 
	C515.179932,410.451630 515.086365,419.554871 515.086365,428.772827 
	C517.808655,428.772827 520.044739,428.772827 522.715820,428.772827 
	C522.715820,418.464844 522.715820,408.402374 522.715820,397.929626 
	C526.382263,397.929626 529.635315,397.929626 533.117004,397.929626 
	C533.117004,395.765656 533.117004,394.021301 533.117004,392.143311 
	C523.613098,392.143311 514.359741,392.143311 504.892883,392.143311 
	C504.892883,394.058319 504.892883,395.803253 504.892883,397.913422 
	C507.270538,397.913422 509.399780,397.913422 512.466980,397.914612 
M671.569336,428.998779 
	C672.815979,428.224091 675.131958,427.471436 675.148438,426.671356 
	C675.384155,415.239441 675.309326,403.801056 675.309326,392.324341 
	C672.598267,392.324341 670.387695,392.324341 668.001465,392.324341 
	C668.001465,403.793121 667.935913,414.940643 668.115051,426.084229 
	C668.130920,427.068756 669.744568,428.027588 671.569336,428.998779 
M359.315002,402.512726 
	C359.315002,399.088226 359.315002,395.663696 359.315002,392.199036 
	C356.594116,392.199036 354.501068,392.199036 352.207825,392.199036 
	C352.207825,404.463074 352.207825,416.529449 352.207825,428.711731 
	C354.636414,428.711731 356.856293,428.711731 359.315033,428.711731 
	C359.315033,420.121399 359.315033,411.816040 359.315002,402.512726 
M409.300385,427.347412 
	C409.300385,415.725067 409.300385,404.102722 409.300385,392.257141 
	C406.741516,392.257141 404.524902,392.257141 402.261353,392.257141 
	C402.261353,404.584320 402.261353,416.653748 402.261353,429.268677 
	C404.781006,428.920319 406.989258,428.615051 409.300385,427.347412 
M300.709930,410.809998 
	C295.851379,410.486969 290.992859,410.163940 285.924927,409.826996 
	C285.924927,412.304565 285.924927,414.045624 285.924927,415.788696 
	C290.979645,415.788696 295.752686,415.788696 300.883270,415.788696 
	C300.883270,414.277496 300.883270,412.991302 300.709930,410.809998 
M492.587494,410.096222 
	C490.455475,410.096222 488.323456,410.096222 485.920288,410.096222 
	C485.920288,412.171173 485.920288,413.913177 485.920288,415.688934 
	C491.001038,415.688934 495.894897,415.688934 500.958954,415.688934 
	C500.862488,413.742767 500.782806,412.135132 500.681732,410.096222 
	C498.113129,410.096222 495.816742,410.096222 492.587494,410.096222 
z"/>
<path fill="#FD8550" opacity="1.000000" stroke="none" 
	d="
M126.000000,468.961731 
	C95.842636,468.961517 66.185272,468.968781 36.527908,468.956604 
	C27.575788,468.952942 24.049280,465.485443 24.045729,456.620911 
	C24.029510,416.133606 24.030203,375.646301 24.046265,335.158997 
	C24.049623,326.688507 27.724710,323.048248 36.264221,323.045502 
	C79.750580,323.031403 123.236938,323.029297 166.723297,323.046753 
	C175.295517,323.050171 178.950562,326.674622 178.953796,335.149261 
	C178.969345,375.803162 178.971985,416.457092 178.951080,457.110992 
	C178.946884,465.284363 175.237015,468.934906 166.986862,468.952911 
	C153.491302,468.982361 139.995621,468.961426 126.000000,468.961731 
M115.510712,342.785248 
	C107.992722,342.476532 100.258812,340.878815 92.996284,342.095276 
	C69.003120,346.114105 50.921375,367.088043 50.028316,391.057220 
	C48.794617,424.169006 80.396362,450.467224 111.820496,444.109497 
	C136.743317,439.067047 154.685272,418.208344 154.899551,393.057495 
	C155.088394,370.893677 140.256317,350.062103 115.510712,342.785248 
z"/>
<path fill="#F2F2F2" opacity="1.000000" stroke="none" 
	d="
M320.559509,419.527405 
	C318.876099,414.988800 317.377716,410.797607 315.879364,406.606415 
	C315.643463,406.621246 315.407593,406.636078 315.171692,406.650879 
	C315.171692,413.890717 315.171692,421.130554 315.171692,428.695679 
	C312.437256,428.695679 310.197510,428.695679 307.626526,428.695679 
	C307.626526,416.735565 307.626526,404.683105 307.626526,392.300018 
	C310.680328,392.300018 313.756622,392.300018 317.318298,392.300018 
	C320.201477,400.594666 323.182037,409.169556 326.575867,418.933228 
	C329.113129,411.702820 331.298767,405.460266 333.494415,399.221222 
	C336.340271,391.134613 336.343719,391.135834 345.688446,392.467010 
	C345.688446,404.499146 345.688446,416.558411 345.688446,428.792114 
	C343.220612,428.792114 340.981323,428.792114 338.383148,428.792114 
	C338.383148,421.454895 338.383148,414.344971 338.383148,407.235046 
	C338.039124,407.146698 337.695099,407.058350 337.351074,406.970001 
	C334.703918,414.134369 332.056793,421.298737 329.390198,428.515656 
	C325.352386,430.178070 323.215179,428.618347 322.311401,424.589722 
	C321.950684,422.981842 321.276184,421.444366 320.559509,419.527405 
z"/>
<path fill="#F6F6F6" opacity="1.000000" stroke="none" 
	d="
M430.409515,416.677643 
	C428.093719,412.898346 425.990540,409.416565 423.887390,405.934753 
	C423.581482,406.007050 423.275574,406.079346 422.969666,406.151611 
	C422.969666,413.656647 422.969666,421.161652 422.969666,428.834473 
	C420.302338,428.834473 418.182312,428.834473 415.690002,428.834473 
	C415.690002,416.769592 415.690002,404.728912 415.690002,392.316833 
	C420.081879,391.332886 423.485687,391.726624 425.922668,396.709961 
	C428.895477,402.788879 432.777252,408.423279 437.210266,414.200439 
	C437.210266,406.947601 437.210266,399.694763 437.210266,392.220642 
	C440.214569,392.220642 442.480865,392.220642 445.053162,392.220642 
	C445.053162,404.277008 445.053162,416.339966 445.053162,428.616608 
	C440.273743,429.972717 436.628784,429.107513 434.587616,423.865479 
	C433.636993,421.424164 431.966400,419.263184 430.409515,416.677643 
z"/>
<path fill="#F6F6F6" opacity="1.000000" stroke="none" 
	d="
M380.423401,404.536865 
	C382.562561,408.016846 384.494019,411.194672 386.425446,414.372498 
	C386.754150,414.274780 387.082855,414.177063 387.411560,414.079346 
	C387.411560,406.891296 387.411560,399.703217 387.411560,392.251953 
	C390.175110,392.251953 392.428680,392.251953 395.021362,392.251953 
	C395.021362,404.239777 395.021362,416.289612 395.021362,428.608215 
	C390.671783,429.701660 387.275116,429.450165 384.812347,424.390106 
	C381.704407,418.004456 377.625122,412.091583 373.202393,404.700500 
	C373.202393,413.497009 373.202393,420.962036 373.202393,428.715759 
	C370.373230,428.715759 368.127319,428.715759 365.597778,428.715759 
	C365.597778,416.665344 365.597778,404.590179 365.597778,392.457947 
	C370.384949,391.020050 373.905548,391.912140 375.958740,396.919159 
	C377.019012,399.504761 378.774414,401.805359 380.423401,404.536865 
z"/>
<path fill="#F6F6F6" opacity="1.000000" stroke="none" 
	d="
M616.103394,417.961517 
	C613.597595,413.729095 611.236267,409.832092 608.095825,404.649200 
	C608.095825,413.540283 608.095825,420.914368 608.095825,428.650208 
	C605.496826,428.650208 603.267090,428.650208 600.673584,428.650208 
	C600.673584,416.752899 600.673584,404.705658 600.673584,392.311554 
	C605.113892,391.325409 608.509277,391.773010 610.938843,396.740234 
	C613.908997,402.812653 617.789551,408.439728 622.233521,414.189148 
	C622.233521,406.929413 622.233521,399.669708 622.233521,392.204590 
	C625.234619,392.204590 627.507507,392.204590 630.069458,392.204590 
	C630.069458,404.296021 630.069458,416.365753 630.069458,428.610901 
	C625.248718,429.970001 621.573486,429.075043 619.573242,423.834839 
	C618.817261,421.854309 617.376465,420.135162 616.103394,417.961517 
z"/>
<path fill="#F3F3F3" opacity="1.000000" stroke="none" 
	d="
M236.616943,392.006226 
	C241.337967,392.469147 245.491501,393.457275 247.437866,397.736908 
	C249.506531,402.285431 248.632278,406.447205 244.339661,409.524506 
	C249.833481,413.115784 251.367538,416.243835 249.809372,421.619446 
	C248.360184,426.619080 244.322586,428.626007 239.563324,428.881500 
	C233.974915,429.181488 228.358093,428.951752 222.559570,428.951752 
	C222.559570,416.488831 222.559570,404.438354 222.559570,391.978699 
	C227.259171,391.978699 231.712555,391.978699 236.616943,392.006226 
M242.432709,419.302429 
	C242.014954,412.822998 240.198364,411.941467 230.257416,413.405670 
	C230.257416,416.594147 230.257416,419.773560 230.257416,423.286499 
	C234.505951,422.164307 239.349945,425.301941 242.432709,419.302429 
M240.801071,401.768250 
	C238.782455,396.257416 234.205612,398.374390 230.143372,397.858154 
	C230.143372,401.150330 230.143372,404.030640 230.143372,407.217316 
	C234.465759,406.872314 239.553497,409.206024 240.801071,401.768250 
z"/>
<path fill="#F2F2F2" opacity="1.000000" stroke="none" 
	d="
M563.879211,428.827942 
	C555.534973,429.085876 555.534851,429.085876 555.301636,421.250427 
	C555.114685,414.971954 553.369812,413.903748 544.069824,414.665039 
	C544.069824,419.205750 544.069824,423.792480 544.069824,428.700867 
	C541.431946,428.700867 539.194092,428.700867 536.620483,428.700867 
	C536.620483,416.730988 536.620483,404.677795 536.620483,392.215698 
	C542.203491,392.215698 547.817810,391.826355 553.346985,392.344543 
	C557.434753,392.727631 560.802979,395.005035 562.234070,399.331177 
	C563.870239,404.277313 562.164734,408.061798 559.376831,409.966705 
	C560.771118,414.326416 562.014832,417.822815 562.986877,421.393158 
	C563.632019,423.762970 563.888489,426.238617 563.879211,428.827942 
M546.421387,408.299072 
	C547.415894,408.298462 548.410461,408.303253 549.404907,408.296234 
	C552.913208,408.271576 555.232910,406.863495 555.047241,403.010895 
	C554.867371,399.277710 552.478333,397.915894 549.031921,397.918091 
	C547.435364,397.919128 545.838867,397.918274 543.151367,397.918274 
	C544.027527,401.827393 544.750488,405.053345 546.421387,408.299072 
z"/>
<path fill="#F3F3F3" opacity="1.000000" stroke="none" 
	d="
M477.456848,426.325562 
	C472.071320,429.746033 466.600098,430.552277 460.874115,428.974213 
	C452.568695,426.685303 449.313843,419.413239 450.319153,405.821564 
	C450.916656,397.742767 455.916931,392.305603 463.609009,391.370483 
	C472.643494,390.272186 478.855103,395.054474 478.890289,403.414185 
	C476.793304,403.414185 474.692932,403.414185 472.376373,403.414185 
	C471.658051,398.978088 468.891724,396.765228 464.401489,397.530151 
	C459.892548,398.298279 458.273926,401.747803 458.059723,405.905518 
	C457.897064,409.062317 457.413055,412.400208 458.208313,415.351318 
	C458.956451,418.127747 460.599854,421.538727 462.891235,422.850098 
	C468.511078,426.066467 472.290710,422.740234 471.879608,415.193604 
	C469.865356,415.034943 467.785675,414.871124 465.340088,414.678467 
	C465.250092,413.199249 465.164246,411.788788 465.054962,409.992920 
	C470.024841,409.992920 474.733917,409.992920 480.051483,409.992920 
	C478.775055,415.393585 482.234314,421.157990 477.456848,426.325562 
z"/>
<path fill="#F2F2F2" opacity="1.000000" stroke="none" 
	d="
M269.405487,414.523010 
	C265.544250,412.869446 261.781891,411.817871 258.563690,409.868134 
	C251.833481,405.790558 252.239380,396.982025 259.162567,393.267090 
	C268.265289,388.382507 281.492828,392.996277 280.662292,402.595856 
	C278.460571,402.595856 276.220947,402.595856 273.614441,402.595856 
	C273.007050,398.466309 270.062378,396.857910 266.187531,397.532623 
	C264.574127,397.813538 262.098846,399.565308 262.033508,400.758728 
	C261.943359,402.405243 263.372131,404.755554 264.855591,405.724091 
	C267.157013,407.226685 270.093597,407.722351 272.689484,408.814667 
	C279.505249,411.682800 281.887634,415.335602 280.975983,421.281860 
	C280.276154,425.846497 275.792450,429.089478 269.354523,429.664703 
	C262.100006,430.312897 251.944733,426.338104 253.430466,417.555695 
	C255.505295,417.555695 257.626892,417.555695 260.099182,417.555695 
	C260.886292,421.920624 263.775635,424.391663 268.336517,423.744354 
	C270.118439,423.491425 273.078888,421.478943 273.011139,420.428497 
	C272.884430,418.463196 270.939423,416.615112 269.405487,414.523010 
z"/>
<path fill="#F2F2F2" opacity="1.000000" stroke="none" 
	d="
M656.320557,428.579651 
	C651.861633,428.774292 647.639587,429.432831 643.686707,428.679352 
	C638.044861,427.603943 635.478271,423.721283 635.308472,417.653809 
	C637.528442,417.653809 639.752197,417.653809 641.996826,417.653809 
	C643.974854,422.733124 646.924683,424.888489 651.098816,423.621796 
	C652.734009,423.125549 655.041260,421.402679 655.128296,420.109650 
	C655.239075,418.464111 653.808777,416.054413 652.321594,415.110596 
	C649.855164,413.545349 646.764709,413.000092 644.023804,411.823334 
	C637.556763,409.046753 635.264771,405.632904 636.008240,400.194550 
	C636.626831,395.669525 640.727051,392.358337 646.838745,391.448273 
	C655.424683,390.169769 661.846191,394.556366 662.724792,402.596008 
	C660.453918,402.596008 658.210754,402.596008 655.967590,402.596008 
	C656.161255,402.163635 656.354919,401.731232 656.548645,401.298859 
	C653.919739,399.991974 651.393127,398.118835 648.618652,397.617310 
	C647.232666,397.366760 644.371704,399.390106 644.048584,400.810516 
	C643.728882,402.215942 645.361267,404.842133 646.851379,405.718231 
	C649.813110,407.459442 653.343506,408.197540 656.494873,409.660522 
	C660.506775,411.523010 663.131958,414.371674 663.094971,419.287109 
	C663.059570,423.991821 660.643372,426.657318 656.320557,428.579651 
z"/>
<path fill="#F6F6F6" opacity="1.000000" stroke="none" 
	d="
M577.951172,392.465149 
	C580.547546,392.159393 582.862976,392.159393 585.669006,392.159393 
	C589.721497,404.215057 593.818970,416.404602 598.001770,428.847870 
	C595.211365,428.847870 592.748657,428.847870 590.149719,428.847870 
	C589.268494,426.313202 588.408691,423.840302 587.573792,421.439056 
	C576.423584,420.057892 576.423584,420.057892 573.108582,428.821259 
	C570.754639,428.821259 568.326050,428.821259 565.351257,428.821259 
	C569.534058,416.580597 573.602112,404.675751 577.951172,392.465149 
M582.894043,405.980774 
	C582.474304,405.122162 582.054626,404.263550 581.468384,403.064392 
	C580.196838,407.187805 579.048645,410.911102 577.816284,414.907471 
	C580.463196,414.907471 582.719849,414.907471 585.499939,414.907471 
	C584.629028,411.973114 583.849976,409.348511 582.894043,405.980774 
z"/>
<path fill="#F6F6F6" opacity="1.000000" stroke="none" 
	d="
M195.383331,416.714294 
	C192.572601,408.374939 189.919861,400.393799 187.181580,392.155243 
	C189.975708,392.155243 192.426010,392.155243 195.111771,392.155243 
	C197.793976,401.081757 200.455124,409.938202 203.512543,420.113434 
	C206.577637,410.000671 209.273575,401.105896 211.987000,392.153412 
	C214.636597,392.153412 217.093643,392.153412 219.962051,392.153412 
	C215.785675,404.475739 211.703323,416.520660 207.546387,428.785614 
	C204.979355,428.785614 202.374573,428.785614 199.570480,428.785614 
	C198.216797,424.850342 196.879044,420.961426 195.383331,416.714294 
z"/>
<path fill="#F3F3F3" opacity="1.000000" stroke="none" 
	d="
M689.086670,421.908966 
	C689.086670,413.793152 689.086670,406.167236 689.086670,398.071350 
	C685.639404,398.071350 682.410278,398.071350 678.911194,398.071350 
	C678.911194,395.857666 678.911194,394.115234 678.911194,392.169556 
	C688.317810,392.169556 697.569458,392.169556 707.094849,392.169556 
	C707.094849,393.959015 707.094849,395.702454 707.094849,397.872314 
	C703.686218,397.872314 700.446045,397.872314 696.770874,397.872314 
	C696.770874,408.340942 696.770874,418.397247 696.770874,428.735229 
	C694.097656,428.735229 691.862366,428.735229 689.086670,428.735229 
	C689.086670,426.619141 689.086670,424.509003 689.086670,421.908966 
z"/>
<path fill="#F3F3F3" opacity="1.000000" stroke="none" 
	d="
M511.998016,397.914001 
	C509.399780,397.913422 507.270538,397.913422 504.892883,397.913422 
	C504.892883,395.803253 504.892883,394.058319 504.892883,392.143311 
	C514.359741,392.143311 523.613098,392.143311 533.117004,392.143311 
	C533.117004,394.021301 533.117004,395.765656 533.117004,397.929626 
	C529.635315,397.929626 526.382263,397.929626 522.715820,397.929626 
	C522.715820,408.402374 522.715820,418.464844 522.715820,428.772827 
	C520.044739,428.772827 517.808655,428.772827 515.086365,428.772827 
	C515.086365,419.554871 515.179932,410.451630 514.970459,401.355347 
	C514.943665,400.189850 513.340088,399.060638 511.998016,397.914001 
z"/>
<path fill="#FFFFFF" opacity="1.000000" stroke="none" 
	d="
M671.092773,428.998535 
	C669.744568,428.027588 668.130920,427.068756 668.115051,426.084229 
	C667.935913,414.940643 668.001465,403.793121 668.001465,392.324341 
	C670.387695,392.324341 672.598267,392.324341 675.309326,392.324341 
	C675.309326,403.801056 675.384155,415.239441 675.148438,426.671356 
	C675.131958,427.471436 672.815979,428.224091 671.092773,428.998535 
z"/>
<path fill="#FFFFFF" opacity="1.000000" stroke="none" 
	d="
M359.315002,403.011719 
	C359.315033,411.816040 359.315033,420.121399 359.315033,428.711731 
	C356.856293,428.711731 354.636414,428.711731 352.207825,428.711731 
	C352.207825,416.529449 352.207825,404.463074 352.207825,392.199036 
	C354.501068,392.199036 356.594116,392.199036 359.315002,392.199036 
	C359.315002,395.663696 359.315002,399.088226 359.315002,403.011719 
z"/>
<path fill="#FFFFFF" opacity="1.000000" stroke="none" 
	d="
M409.248962,427.828583 
	C406.989258,428.615051 404.781006,428.920319 402.261353,429.268677 
	C402.261353,416.653748 402.261353,404.584320 402.261353,392.257141 
	C404.524902,392.257141 406.741516,392.257141 409.300385,392.257141 
	C409.300385,404.102722 409.300385,415.725067 409.248962,427.828583 
z"/>
<path fill="#F6F6F6" opacity="1.000000" stroke="none" 
	d="
M300.796600,411.257568 
	C300.883270,412.991302 300.883270,414.277496 300.883270,415.788696 
	C295.752686,415.788696 290.979645,415.788696 285.924927,415.788696 
	C285.924927,414.045624 285.924927,412.304565 285.924927,409.826996 
	C290.992859,410.163940 295.851379,410.486969 300.796600,411.257568 
z"/>
<path fill="#F6F6F6" opacity="1.000000" stroke="none" 
	d="
M493.053955,410.096222 
	C495.816742,410.096222 498.113129,410.096222 500.681732,410.096222 
	C500.782806,412.135132 500.862488,413.742767 500.958954,415.688934 
	C495.894897,415.688934 491.001038,415.688934 485.920288,415.688934 
	C485.920288,413.913177 485.920288,412.171173 485.920288,410.096222 
	C488.323456,410.096222 490.455475,410.096222 493.053955,410.096222 
z"/>
<path fill="#FDFEFE" opacity="1.000000" stroke="none" 
	d="
M115.923012,342.821869 
	C140.256317,350.062103 155.088394,370.893677 154.899551,393.057495 
	C154.685272,418.208344 136.743317,439.067047 111.820496,444.109497 
	C80.396362,450.467224 48.794617,424.169006 50.028316,391.057220 
	C50.921375,367.088043 69.003120,346.114105 92.996284,342.095276 
	C100.258812,340.878815 107.992722,342.476532 115.923012,342.821869 
M103.498123,410.914856 
	C103.594818,411.363312 103.691521,411.811737 103.906204,413.052979 
	C104.033127,414.628021 104.160057,416.203064 104.250519,417.325562 
	C108.009460,417.325562 111.275101,417.325562 114.583061,417.325562 
	C114.327415,415.968506 114.025398,414.365265 114.573174,412.785950 
	C115.139877,412.781738 115.706589,412.777496 116.142799,413.594299 
	C116.784218,415.004700 117.425636,416.415131 118.067039,417.825531 
	C118.800926,416.838623 119.534813,415.851685 120.268700,414.864777 
	C119.698174,414.946381 119.127640,415.027985 118.557114,415.109589 
	C117.945526,414.328705 117.333931,413.547852 117.543159,412.784027 
	C119.207077,411.823944 121.638252,411.239471 122.339020,409.807922 
	C123.198280,408.052582 122.964043,405.516510 122.542557,403.452728 
	C122.164772,401.602997 120.991356,398.510132 119.996681,398.440918 
	C116.160713,398.173920 112.148056,398.486115 108.429054,399.455994 
	C106.928596,399.847290 108.269440,410.928223 109.121521,413.059753 
	C108.101433,412.728302 107.081352,412.396820 106.198997,411.135254 
	C106.185738,407.746155 106.321289,404.345764 106.065628,400.975067 
	C105.992004,400.004364 104.791306,399.119171 103.704079,398.195404 
	C103.637634,398.531952 103.571190,398.868469 103.495506,400.001923 
	C103.514648,401.595642 103.533791,403.189362 103.226242,405.404816 
	C103.335548,407.009796 103.444855,408.614746 103.498123,410.914856 
M97.455254,370.067871 
	C97.307487,370.424469 97.159721,370.781097 96.713234,371.743896 
	C95.781219,373.830261 94.849205,375.916656 93.460602,378.511414 
	C92.459335,380.422363 91.458069,382.333344 90.233421,384.115906 
	C90.233421,384.115906 89.987480,384.039124 89.844963,383.340607 
	C88.582443,380.869904 87.319931,378.399200 85.943008,375.425812 
	C85.671913,375.227325 85.400818,375.028809 85.095146,374.943756 
	C85.095146,374.943756 85.191200,374.874207 85.122650,374.145935 
	C82.213860,366.076233 79.308929,364.333832 72.653687,367.090027 
	C74.169998,370.383636 75.682434,373.668823 77.327972,377.640442 
	C78.614777,380.429352 79.901581,383.218231 81.338158,386.687561 
	C83.271057,390.778351 84.277512,395.986572 90.111305,396.150146 
	C95.902626,396.312561 96.588722,390.929321 98.982597,386.801697 
	C100.136116,384.239197 101.289635,381.676697 102.873283,378.548920 
	C103.547035,377.353333 104.220787,376.157745 105.150146,375.086487 
	C105.150146,375.086487 105.427864,375.147095 105.670273,375.852966 
	C107.049164,378.577423 108.428047,381.301910 109.944733,384.742279 
	C110.931992,386.816071 111.868233,388.916016 112.916634,390.958435 
	C115.471916,395.936371 119.037971,397.281250 124.813622,395.367035 
	C122.915573,391.534210 121.030502,387.727570 119.049690,383.200775 
	C117.620201,380.152832 116.190712,377.104889 114.599937,373.387817 
	C113.886864,371.899353 113.550613,369.908173 112.379707,369.030457 
	C110.163551,367.369110 107.569397,365.610077 104.945786,365.249756 
	C101.819366,364.820435 98.798149,366.241394 97.997032,369.983124 
	C97.997032,369.983124 98.046577,369.988800 97.455254,370.067871 
M90.754707,417.943542 
	C91.555420,417.373413 92.466187,416.215302 93.136696,416.340790 
	C95.356354,416.756226 97.489380,417.634552 100.539513,418.621155 
	C99.946831,415.543945 99.653587,414.021454 99.988640,412.163239 
	C103.116814,406.579437 101.829834,404.138336 95.733994,404.096313 
	C94.571327,404.088287 93.362083,404.285675 92.260132,404.025208 
	C91.322578,403.803619 90.508583,403.059204 89.639923,402.546082 
	C90.474350,402.001648 91.316284,400.984436 92.141876,400.997589 
	C95.150009,401.045349 98.152679,401.437378 101.205917,401.703888 
	C99.792030,397.386749 91.541206,396.470154 86.304245,399.988373 
	C85.940895,399.985107 85.577545,399.981842 85.060326,399.219757 
	C84.146797,399.434235 82.434052,399.661530 82.437263,399.861267 
	C82.507462,404.234314 82.768181,408.604340 83.020752,413.586914 
	C82.818924,414.612549 82.617088,415.638214 82.321274,417.141510 
	C84.583084,417.374542 87.346748,417.659271 90.754707,417.943542 
M127.574966,410.793335 
	C127.529457,408.544281 127.483948,406.295258 127.894333,404.046600 
	C128.198105,404.037445 128.501923,404.029846 129.299728,404.488586 
	C131.541199,407.319824 133.782669,410.151062 135.362198,413.269409 
	C134.194748,413.886353 133.027313,414.503296 130.578491,415.797363 
	C133.226013,416.619720 134.419296,416.990356 136.014023,417.485687 
	C136.014023,415.575897 136.014023,414.274078 136.854584,413.031097 
	C139.662903,410.704132 140.237244,402.328125 137.120407,396.831268 
	C136.681366,400.984131 136.368546,403.943176 135.956009,407.845337 
	C133.943222,405.533325 132.718994,403.787048 131.159805,402.423950 
	C129.291290,400.790436 127.136963,399.483887 124.745735,398.089874 
	C124.645378,398.155518 124.458771,398.223206 124.460281,398.286438 
	C124.465523,398.506744 124.535889,398.725525 124.677048,399.661163 
	C124.637993,400.138672 124.598938,400.616150 124.169846,401.749756 
	C124.291740,404.800354 124.413635,407.850922 124.706490,411.584106 
	C124.832779,412.035400 124.959068,412.486725 124.495972,413.403168 
	C124.347183,414.751129 124.198395,416.099091 124.022736,417.690491 
	C129.009354,417.253998 127.951355,414.134674 127.574966,410.793335 
M76.106064,406.640808 
	C77.640709,403.980560 79.175354,401.320312 80.709991,398.660065 
	C74.823616,399.636078 74.968094,405.813110 71.289436,408.589844 
	C67.841591,405.679230 67.865883,399.624542 61.379784,397.555237 
	C64.862900,403.598480 67.646614,408.428284 70.935875,414.135193 
	C72.846443,411.436707 74.313629,409.364471 76.106064,406.640808 
M107.192345,391.362579 
	C105.312363,391.181854 103.432388,391.001129 101.247986,390.791168 
	C102.008766,393.253632 102.393082,394.497559 102.698097,395.484833 
	C105.797752,396.037933 107.426819,394.824982 107.192345,391.362579 
z"/>
<path fill="#191924" opacity="1.000000" stroke="none" 
	d="
M242.320709,419.731812 
	C239.349945,425.301941 234.505951,422.164307 230.257416,423.286499 
	C230.257416,419.773560 230.257416,416.594147 230.257416,413.405670 
	C240.198364,411.941467 242.014954,412.822998 242.320709,419.731812 
z"/>
<path fill="#191924" opacity="1.000000" stroke="none" 
	d="
M240.874298,402.162048 
	C239.553497,409.206024 234.465759,406.872314 230.143372,407.217316 
	C230.143372,404.030640 230.143372,401.150330 230.143372,397.858154 
	C234.205612,398.374390 238.782455,396.257416 240.874298,402.162048 
z"/>
<path fill="#191924" opacity="1.000000" stroke="none" 
	d="
M545.947449,408.289185 
	C544.750488,405.053345 544.027527,401.827393 543.151367,397.918274 
	C545.838867,397.918274 547.435364,397.919128 549.031921,397.918091 
	C552.478333,397.915894 554.867371,399.277710 555.047241,403.010895 
	C555.232910,406.863495 552.913208,408.271576 549.404907,408.296234 
	C548.410461,408.303253 547.415894,408.298462 545.947449,408.289185 
z"/>
<path fill="#191924" opacity="1.000000" stroke="none" 
	d="
M582.982544,406.352325 
	C583.849976,409.348511 584.629028,411.973114 585.499939,414.907471 
	C582.719849,414.907471 580.463196,414.907471 577.816284,414.907471 
	C579.048645,410.911102 580.196838,407.187805 581.468384,403.064392 
	C582.054626,404.263550 582.474304,405.122162 582.982544,406.352325 
z"/>
<path fill="#2F7FD2" opacity="1.000000" stroke="none" 
	d="
M86.849251,399.982513 
	C91.541206,396.470154 99.792030,397.386749 101.205917,401.703888 
	C98.152679,401.437378 95.150009,401.045349 92.141876,400.997589 
	C91.316284,400.984436 90.474350,402.001648 89.639923,402.546082 
	C90.508583,403.059204 91.322578,403.803619 92.260132,404.025208 
	C93.362083,404.285675 94.571327,404.088287 95.733994,404.096313 
	C101.829834,404.138336 103.116814,406.579437 99.286591,412.215515 
	C97.059982,412.427704 95.535416,412.587585 93.678024,412.748352 
	C92.902946,412.782043 92.460701,412.814850 91.763748,412.628174 
	C90.877991,412.517670 90.246941,412.626617 89.335144,412.654541 
	C88.677780,412.475677 88.301170,412.377777 87.744537,412.087219 
	C87.410248,411.810242 87.255966,411.725983 87.062500,411.241943 
	C87.798485,410.346283 88.577797,409.425720 89.348076,409.433197 
	C91.769028,409.456757 94.185051,409.955872 96.606468,409.985504 
	C97.285965,409.993866 97.977501,409.019226 98.663513,408.495483 
	C98.013176,407.941437 97.442238,407.132996 96.692055,406.898865 
	C95.788429,406.616852 94.732552,406.821930 93.742577,406.817566 
	C87.057961,406.788086 87.057961,406.788239 86.849251,399.982513 
z"/>
<path fill="#2F7FD2" opacity="1.000000" stroke="none" 
	d="
M109.825706,412.825775 
	C108.269440,410.928223 106.928596,399.847290 108.429054,399.455994 
	C112.148056,398.486115 116.160713,398.173920 119.996681,398.440918 
	C120.991356,398.510132 122.164772,401.602997 122.542557,403.452728 
	C122.964043,405.516510 123.198280,408.052582 122.339020,409.807922 
	C121.638252,411.239471 119.207077,411.823944 117.020401,412.732056 
	C116.497643,412.680084 116.273293,412.773254 116.273293,412.773254 
	C115.706589,412.777496 115.139877,412.781738 114.043686,412.738647 
	C113.514191,412.691376 113.347054,412.838226 112.932869,412.824738 
	C111.969994,412.843201 111.421310,412.875122 110.700836,412.836853 
	C110.284233,412.664520 110.049782,412.684235 109.825706,412.825775 
M116.335617,410.040527 
	C123.404785,408.967377 118.085449,404.098846 120.029190,401.289734 
	C116.333771,401.289734 113.617897,401.289734 110.899719,401.289734 
	C110.899719,404.273865 110.899719,406.866852 110.899719,409.770172 
	C112.535973,409.868286 113.971558,409.954376 116.335617,410.040527 
z"/>
<path fill="#2F7FD2" opacity="1.000000" stroke="none" 
	d="
M125.106400,398.035736 
	C127.136963,399.483887 129.291290,400.790436 131.159805,402.423950 
	C132.718994,403.787048 133.943222,405.533325 135.956009,407.845337 
	C136.368546,403.943176 136.681366,400.984131 137.120407,396.831268 
	C140.237244,402.328125 139.662903,410.704132 136.426849,413.015625 
	C135.999115,413.000122 136.024139,412.982269 136.024139,412.982269 
	C133.782669,410.151062 131.541199,407.319824 128.982544,403.988220 
	C128.256393,403.673981 127.847412,403.860107 127.438431,404.046204 
	C127.483948,406.295258 127.529457,408.544281 127.448639,411.359589 
	C126.576660,412.263245 125.831017,412.600616 125.085365,412.938019 
	C124.959068,412.486725 124.832779,412.035400 124.725067,410.808228 
	C124.682396,407.052795 124.621140,404.073212 124.559891,401.093658 
	C124.598938,400.616150 124.637993,400.138672 124.777130,399.085327 
	C124.953606,398.351562 125.030006,398.193665 125.106400,398.035736 
z"/>
<path fill="#4A7AF3" opacity="1.000000" stroke="none" 
	d="
M98.742081,387.237152 
	C96.588722,390.929321 95.902626,396.312561 90.111305,396.150146 
	C84.277512,395.986572 83.271057,390.778351 81.679604,386.344849 
	C84.676529,385.347809 87.332001,384.693481 89.987480,384.039124 
	C89.987480,384.039124 90.233421,384.115906 90.446587,384.526520 
	C92.404839,389.038696 95.242279,389.301697 98.742081,387.237152 
z"/>
<path fill="#4A7AF3" opacity="1.000000" stroke="none" 
	d="
M105.427864,375.147095 
	C105.427864,375.147095 105.150146,375.086487 104.966751,374.687317 
	C102.518501,372.869171 100.253654,371.450226 97.988808,370.031281 
	C98.798149,366.241394 101.819366,364.820435 104.945786,365.249756 
	C107.569397,365.610077 110.163551,367.369110 112.379707,369.030457 
	C113.550613,369.908173 113.886864,371.899353 114.368637,373.886780 
	C111.234177,374.639526 108.331017,374.893311 105.427864,375.147095 
z"/>
<path fill="#6B44DB" opacity="1.000000" stroke="none" 
	d="
M119.145432,383.920929 
	C121.030502,387.727570 122.915573,391.534210 124.813622,395.367035 
	C119.037971,397.281250 115.471916,395.936371 112.916634,390.958435 
	C111.868233,388.916016 110.931992,386.816071 110.260254,384.511353 
	C113.432327,384.160583 116.288879,384.040741 119.145432,383.920929 
z"/>
<path fill="#5D60E9" opacity="1.000000" stroke="none" 
	d="
M89.916222,383.689880 
	C87.332001,384.693481 84.676529,385.347809 81.604713,386.004639 
	C79.901581,383.218231 78.614777,380.429352 77.588531,377.138824 
	C80.296463,376.049561 82.743835,375.461884 85.191200,374.874207 
	C85.191200,374.874207 85.095146,374.943756 85.080353,375.139038 
	C85.396172,375.532410 85.726791,375.730438 86.057419,375.928497 
	C87.319931,378.399200 88.582443,380.869904 89.916222,383.689880 
z"/>
<path fill="#F2F2F2" opacity="1.000000" stroke="none" 
	d="
M86.576752,399.985443 
	C87.057961,406.788239 87.057961,406.788086 93.742577,406.817566 
	C94.732552,406.821930 95.788429,406.616852 96.692055,406.898865 
	C97.442238,407.132996 98.013176,407.941437 98.663513,408.495483 
	C97.977501,409.019226 97.285965,409.993866 96.606468,409.985504 
	C94.185051,409.955872 91.769028,409.456757 89.348076,409.433197 
	C88.577797,409.425720 87.798485,410.346283 87.072327,411.437561 
	C87.389091,412.115265 87.656822,412.197571 87.924561,412.279877 
	C88.301170,412.377777 88.677780,412.475677 89.473854,412.994995 
	C89.965691,414.925598 90.038055,416.434814 90.110428,417.944031 
	C87.346748,417.659271 84.583084,417.374542 82.321274,417.141510 
	C82.617088,415.638214 82.818924,414.612549 83.273422,413.280396 
	C83.699242,413.014435 83.872383,413.054993 84.172531,413.241821 
	C84.499947,413.149017 84.700363,412.909912 84.953339,412.230560 
	C85.075325,407.853088 85.144760,403.915833 85.214195,399.978607 
	C85.577545,399.981842 85.940895,399.985107 86.576752,399.985443 
z"/>
<path fill="#5D60E9" opacity="1.000000" stroke="none" 
	d="
M119.097565,383.560852 
	C116.288879,384.040741 113.432327,384.160583 110.191360,384.153381 
	C108.428047,381.301910 107.049164,378.577423 105.549072,375.500000 
	C108.331017,374.893311 111.234177,374.639526 114.449280,374.221344 
	C116.190712,377.104889 117.620201,380.152832 119.097565,383.560852 
z"/>
<path fill="#2F7FD2" opacity="1.000000" stroke="none" 
	d="
M75.943436,406.966492 
	C74.313629,409.364471 72.846443,411.436707 70.935875,414.135193 
	C67.646614,408.428284 64.862900,403.598480 61.379784,397.555237 
	C67.865883,399.624542 67.841591,405.679230 71.291977,408.596252 
	C74.968094,405.813110 74.823616,399.636078 80.709991,398.660065 
	C79.175354,401.320312 77.640709,403.980560 75.943436,406.966492 
z"/>
<path fill="#6B44DB" opacity="1.000000" stroke="none" 
	d="
M85.156921,374.510071 
	C82.743835,375.461884 80.296463,376.049561 77.521973,376.795593 
	C75.682434,373.668823 74.169998,370.383636 72.653687,367.090027 
	C79.308929,364.333832 82.213860,366.076233 85.156921,374.510071 
z"/>
<path fill="#FD8550" opacity="1.000000" stroke="none" 
	d="
M98.862335,387.019409 
	C95.242279,389.301697 92.404839,389.038696 90.558273,384.590698 
	C91.458069,382.333344 92.459335,380.422363 94.060089,378.404541 
	C97.254112,378.569824 99.848633,378.842010 102.443161,379.114197 
	C101.289635,381.676697 100.136116,384.239197 98.862335,387.019409 
z"/>
<path fill="#FAC657" opacity="1.000000" stroke="none" 
	d="
M102.658218,378.831543 
	C99.848633,378.842010 97.254112,378.569824 94.288383,378.150330 
	C94.849205,375.916656 95.781219,373.830261 97.170265,371.360046 
	C97.767059,370.647064 97.906822,370.317932 98.046585,369.988800 
	C98.046577,369.988800 97.997032,369.983124 97.992920,370.007202 
	C100.253654,371.450226 102.518501,372.869171 104.838943,374.625122 
	C104.220787,376.157745 103.547035,377.353333 102.658218,378.831543 
z"/>
<path fill="#8DB1CC" opacity="1.000000" stroke="none" 
	d="
M90.432571,417.943787 
	C90.038055,416.434814 89.965691,414.925598 89.754608,413.075958 
	C90.246941,412.626617 90.877991,412.517670 91.734833,412.888000 
	C91.929062,413.538574 91.897507,413.709839 91.684677,413.997131 
	C91.561974,414.346741 91.620552,414.580322 91.679123,414.813873 
	C91.909988,414.664795 92.140854,414.515717 92.658066,414.257935 
	C93.299889,413.681976 93.655373,413.214722 94.010849,412.747498 
	C95.535416,412.587585 97.059982,412.427704 98.972443,412.383362 
	C99.653587,414.021454 99.946831,415.543945 100.539513,418.621155 
	C97.489380,417.634552 95.356354,416.756226 93.136696,416.340790 
	C92.466187,416.215302 91.555420,417.373413 90.432571,417.943787 
z"/>
<path fill="#2F7FD2" opacity="1.000000" stroke="none" 
	d="
M84.045532,413.095581 
	C83.872383,413.054993 83.699242,413.014435 83.259247,412.974426 
	C82.768181,408.604340 82.507462,404.234314 82.437263,399.861267 
	C82.434052,399.661530 84.146797,399.434235 85.137260,399.599182 
	C85.144760,403.915833 85.075325,407.853088 84.730988,412.319489 
	C84.456078,412.848663 84.045532,413.095581 84.045532,413.095581 
z"/>
<path fill="#8DB1CC" opacity="1.000000" stroke="none" 
	d="
M113.347054,412.838226 
	C113.347054,412.838226 113.514191,412.691376 113.618790,412.726685 
	C114.025398,414.365265 114.327415,415.968506 114.583061,417.325562 
	C111.275101,417.325562 108.009460,417.325562 104.250519,417.325562 
	C104.160057,416.203064 104.033127,414.628021 104.227684,412.635742 
	C105.053200,412.167450 105.557236,412.116425 106.061264,412.065369 
	C107.081352,412.396820 108.101433,412.728302 109.473618,412.942749 
	C110.049782,412.684235 110.284233,412.664520 110.823059,413.115112 
	C111.860397,413.255127 112.603729,413.046692 113.347054,412.838226 
z"/>
<path fill="#FAC657" opacity="1.000000" stroke="none" 
	d="
M107.412231,391.609222 
	C107.426819,394.824982 105.797752,396.037933 102.698097,395.484833 
	C102.393082,394.497559 102.008766,393.253632 101.247986,390.791168 
	C103.432388,391.001129 105.312363,391.181854 107.412231,391.609222 
z"/>
<path fill="#2F7FD2" opacity="1.000000" stroke="none" 
	d="
M106.130127,411.600342 
	C105.557236,412.116425 105.053200,412.167450 104.168686,412.239349 
	C103.691521,411.811737 103.594818,411.363312 103.664581,410.126770 
	C103.738335,407.820160 103.645638,406.301636 103.552933,404.783081 
	C103.533791,403.189362 103.514648,401.595642 103.693245,399.375885 
	C103.963097,398.564850 104.035217,398.379822 104.107346,398.194763 
	C104.791306,399.119171 105.992004,400.004364 106.065628,400.975067 
	C106.321289,404.345764 106.185738,407.746155 106.130127,411.600342 
z"/>
<path fill="#F3F3F3" opacity="1.000000" stroke="none" 
	d="
M124.790665,413.170593 
	C125.831017,412.600616 126.576660,412.263245 127.572098,411.716278 
	C127.951355,414.134674 129.009354,417.253998 124.022736,417.690491 
	C124.198395,416.099091 124.347183,414.751129 124.790665,413.170593 
z"/>
<path fill="#F3F3F3" opacity="1.000000" stroke="none" 
	d="
M136.006561,412.986206 
	C136.014023,414.274078 136.014023,415.575897 136.014023,417.485687 
	C134.419296,416.990356 133.226013,416.619720 130.578491,415.797363 
	C133.027313,414.503296 134.194748,413.886353 135.693176,413.125854 
	C136.024139,412.982269 135.999115,413.000122 136.006561,412.986206 
z"/>
<path fill="#8DB1CC" opacity="1.000000" stroke="none" 
	d="
M116.208046,413.183777 
	C116.273293,412.773254 116.497643,412.680084 116.609993,412.723511 
	C117.333931,413.547852 117.945526,414.328705 118.557114,415.109589 
	C119.127640,415.027985 119.698174,414.946381 120.268700,414.864777 
	C119.534813,415.851685 118.800926,416.838623 118.067047,417.825531 
	C117.425636,416.415131 116.784218,415.004700 116.208046,413.183777 
z"/>
<path fill="#F3F3F3" opacity="1.000000" stroke="none" 
	d="
M124.364868,401.421692 
	C124.621140,404.073212 124.682396,407.052795 124.639587,410.466919 
	C124.413635,407.850922 124.291740,404.800354 124.364868,401.421692 
z"/>
<path fill="#8DB1CC" opacity="1.000000" stroke="none" 
	d="
M103.389587,405.093933 
	C103.645638,406.301636 103.738335,407.820160 103.692596,409.779236 
	C103.444855,408.614746 103.335548,407.009796 103.389587,405.093933 
z"/>
<path fill="#6B44DB" opacity="1.000000" stroke="none" 
	d="
M86.000214,375.677155 
	C85.726791,375.730438 85.396172,375.532410 85.097641,375.082336 
	C85.400818,375.028809 85.671913,375.227325 86.000214,375.677155 
z"/>
<path fill="#F3F3F3" opacity="1.000000" stroke="none" 
	d="
M127.666382,404.046387 
	C127.847412,403.860107 128.256393,403.673981 128.735565,403.755798 
	C128.501923,404.029846 128.198105,404.037445 127.666382,404.046387 
z"/>
<path fill="#4A7AF3" opacity="1.000000" stroke="none" 
	d="
M97.750916,370.028320 
	C97.906822,370.317932 97.767059,370.647064 97.319626,371.056946 
	C97.159721,370.781097 97.307487,370.424469 97.750916,370.028320 
z"/>
<path fill="#8DB1CC" opacity="1.000000" stroke="none" 
	d="
M103.905716,398.195068 
	C104.035217,398.379822 103.963097,398.564850 103.697861,398.977417 
	C103.571190,398.868469 103.637634,398.531952 103.905716,398.195068 
z"/>
<path fill="#F3F3F3" opacity="1.000000" stroke="none" 
	d="
M124.926071,398.062805 
	C125.030006,398.193665 124.953606,398.351562 124.729355,398.727173 
	C124.535889,398.725525 124.465523,398.506744 124.460281,398.286438 
	C124.458771,398.223206 124.645378,398.155518 124.926071,398.062805 
z"/>
<path fill="#FDFEFE" opacity="1.000000" stroke="none" 
	d="
M91.865944,413.881104 
	C91.897507,413.709839 91.929062,413.538574 91.989540,413.107483 
	C92.460701,412.814850 92.902946,412.782043 93.678024,412.748352 
	C93.655373,413.214722 93.299889,413.681976 92.532745,414.135376 
	C92.121078,414.121521 91.865944,413.881104 91.865944,413.881104 
z"/>
<path fill="#FDFEFE" opacity="1.000000" stroke="none" 
	d="
M87.744537,412.087219 
	C87.656822,412.197571 87.389091,412.115265 87.111526,411.837341 
	C87.255966,411.725983 87.410248,411.810242 87.744537,412.087219 
z"/>
<path fill="#FDFEFE" opacity="1.000000" stroke="none" 
	d="
M115.871384,410.040497 
	C113.971558,409.954376 112.535973,409.868286 110.899719,409.770172 
	C110.899719,406.866852 110.899719,404.273865 110.899719,401.289734 
	C113.617897,401.289734 116.333771,401.289734 120.029190,401.289734 
	C118.085449,404.098846 123.404785,408.967377 115.871384,410.040497 
z"/>
<path fill="#FDFEFE" opacity="1.000000" stroke="none" 
	d="
M112.932869,412.824738 
	C112.603729,413.046692 111.860397,413.255127 110.994843,413.185333 
	C111.421310,412.875122 111.969994,412.843201 112.932869,412.824738 
z"/>
<path fill="#FDFEFE" opacity="1.000000" stroke="none" 
	d="
M84.172531,413.241821 
	C84.045532,413.095581 84.456078,412.848663 84.678436,412.759735 
	C84.700363,412.909912 84.499947,413.149017 84.172531,413.241821 
z"/>
<path fill="#FDFEFE" opacity="1.000000" stroke="none" 
	d="
M92.246399,414.244080 
	C92.140854,414.515717 91.909988,414.664795 91.679123,414.813873 
	C91.620552,414.580322 91.561974,414.346741 91.684677,413.997131 
	C91.865944,413.881104 92.121078,414.121521 92.246399,414.244080 
z"/>
</svg>